<?xml version="1.0" encoding="UTF-8"?>
<!-- Created with Inkscape (http://www.inkscape.org/) -->
<svg width="743.11" height="529.13" version="1.1" viewBox="0 0 743.11 529.13" xml:space="preserve" xmlns="http://www.w3.org/2000/svg" xmlns:cc="http://creativecommons.org/ns#" xmlns:dc="http://purl.org/dc/elements/1.1/" xmlns:rdf="http://www.w3.org/1999/02/22-rdf-syntax-ns#"><metadata><rdf:RDF><cc:Work rdf:about=""><dc:format>image/svg+xml</dc:format><dc:type rdf:resource="http://purl.org/dc/dcmitype/StillImage"/><dc:title/></cc:Work></rdf:RDF></metadata><defs><clipPath id="clipPath46"><path d="M 0,396.85 H 557.331 V 0 H 0 Z"/></clipPath><clipPath id="clipPath84"><path d="M 0,396.85 H 557.331 V 0 H 0 Z"/></clipPath><clipPath id="clipPath100"><path d="M 0,396.85 H 557.331 V 0 H 0 Z"/></clipPath><clipPath id="clipPath116"><path d="M 0,396.85 H 557.331 V 0 H 0 Z"/></clipPath><clipPath id="clipPath144"><path d="M 0,396.85 H 557.331 V 0 H 0 Z"/></clipPath><clipPath id="clipPath172"><path d="M 0,396.85 H 557.331 V 0 H 0 Z"/></clipPath><clipPath id="clipPath188"><path d="M 0,396.85 H 557.331 V 0 H 0 Z"/></clipPath><clipPath id="clipPath228"><path d="M 0,396.85 H 557.331 V 0 H 0 Z"/></clipPath><clipPath id="clipPath292"><path d="M 0,396.85 H 557.331 V 0 H 0 Z"/></clipPath></defs><g transform="matrix(1.3333 0 0 -1.3333 0 529.13)"><text transform="matrix(1 0 0 -1 411.65 243.99)" fill="#c4c4c4" font-family="'Ubuntu Light'" font-size="14px" font-weight="300"><tspan x="0 8.526 16.674 28.756001 40.838001 47.964001 55.93 64.092003 67.283997 76.356003 79.547997 88.073997 96.222 104.188 109.606 114.842 122.99" y="0">Command &amp; Control</tspan></text>
<g transform="translate(392.06 279.37)"><path d="m0 0v-61.649" fill="none" stroke="#fdf3e7" stroke-width="20"/></g><g transform="translate(372.12 273.53)"><path d="M 0,0 19.945,34.539 39.891,0 Z" fill="#fdf3e7"/></g><g transform="translate(372.12 223.55)"><path d="M 0,0 19.945,-34.539 39.891,0 Z" fill="#fdf3e7"/></g><g transform="translate(165.69 254.25)"><path d="m0 0v-70.906" fill="none" stroke="#fdf3e7" stroke-width="50"/></g><g transform="translate(128.29 243.31)"><path d="M 0,0 37.398,64.761 74.795,0 Z" fill="#fdf3e7"/></g><text transform="matrix(1 0 0 -1 32.235 242.34)" fill="#c4c4c4" font-family="'Ubuntu Light'" font-size="19.067px" font-weight="300"><tspan x="0 9.6100197 20.05901 24.921223 35.370213 51.825466 62.274456 69.65358 77.185242" y="0">Telemetry</tspan></text>
<g clip-path="url(#clipPath46)"><g transform="translate(322.52 187.2)"><path d="m0 0c-5.301 3.7-12.9 8.601-20.5 9.3-10.7 1-7.2-2.199-14.101-3.6 0 0-0.2 2 3.601 4.3 4.899 2.9 10.3 6.2 12.3 12.3 2.3 6.9 0.399 15.2-1.601 21.5-2.3 7.4-9.3 26.7-22 26.7-12.699 0-21.3-20.4-24.399-29.3-2.101-6.2-4.5-14.9-3-22.3 2.099-10.799 7.899-8.2 11.399-15.2-6.3-1.8-13.099 1.5-18.599 2.3-13.3 2.101-25.6-15.3-31.1-34.6-1.5-5.2-1.4-13 3.899-17.5 5.601-4.799 18.701-5.299 36.901 2.701 6 2.599 14 6.699 18.599 12.699 5.401 7.301 2.401 10.2 2.8 15.1 6.2-7.1 4.301-7 8.601-18.2 3.7-9.9 17.7-11.5 26.5-11.4 7.8 0.1 15.2 1 21 3.301 5 2 8.599 5 10.3 8.699 3.299 7.5-1.701 20-20.6 33.2" fill="#f08712"/></g><g transform="translate(314.82 171.5)"><path d="m0 0c-1.7 0-3.4-0.699-4.601-2l-24.799 13.101c0.299 0.899 0.4 1.899 0.4 2.799 0 4.401-3 8.401-7.3 9.5l1.8 24c2.8 0.701 4.8 3.201 4.8 6.1 0 3.5-2.8 6.3-6.3 6.3s-6.3-2.8-6.3-6.3c0-2.7 1.6-5 4.1-5.899l-1.8-24c-4.9-0.601-8.601-4.8-8.601-9.701 0-1.5 0.401-3 1-4.4l-24.799-17.3c-1.1 0.901-2.5 1.401-3.9 1.401-3.5 0-6.301-2.8-6.301-6.3s2.801-6.301 6.301-6.301 6.3 2.801 6.3 6.301c0 0.599-0.101 1.3-0.3 1.899l24.9 17.401c1.799-1.601 4.1-2.5 6.5-2.5 3 0 5.799 1.399 7.7 3.7l25-13.101c-0.1-0.399-0.1-0.7-0.1-1 0-3.5 2.8-6.3 6.3-6.3s6.3 2.8 6.3 6.3-2.8 6.3-6.3 6.3" fill="#fdf3e7"/></g><g transform="translate(314.82 168.7)"><path d="m0 0c1.933 0 3.5-1.566 3.5-3.5 0-1.933-1.567-3.5-3.5-3.5s-3.5 1.567-3.5 3.5c0 1.934 1.567 3.5 3.5 3.5" fill="#f6b771"/></g><g transform="translate(278.82 228.5)"><path d="m0 0c1.933 0 3.5-1.567 3.5-3.5s-1.567-3.5-3.5-3.5-3.5 1.567-3.5 3.5 1.567 3.5 3.5 3.5" fill="#f6b771"/></g><g transform="translate(238.42 162.3)"><path d="m0 0c1.934 0 3.5-1.567 3.5-3.5 0-1.934-1.566-3.5-3.5-3.5-1.933 0-3.5 1.566-3.5 3.5 0 1.933 1.567 3.5 3.5 3.5" fill="#f6b771"/></g><g transform="translate(276.02 191.7)"><path d="m0 0c3.479 0 6.3-2.82 6.3-6.3 0-3.479-2.821-6.3-6.3-6.3s-6.301 2.821-6.301 6.3c0 3.48 2.822 6.3 6.301 6.3" fill="#f6b771"/></g></g><text transform="matrix(1 0 0 -1 254.7 14.632)" fill="#000000" font-family="Ubuntu" font-size="16.192px"><tspan x="0 9.1487064 18.394566 22.491243 31.785681 41.14489" y="0">Things</tspan><tspan x="-10.104057 -1.4897008 8.0638151 12.484341 21.778778 28.288122 32.3848 41.938316 51.232754" y="-355.63367">Solutions</tspan></text>
<g clip-path="url(#clipPath84)"><g transform="translate(101.9 59.733)"><path d="m0 0h-57.7c-1.448 0-2.623 1.174-2.623 2.622v34.382c0 1.448 1.175 2.622 2.623 2.622h57.7c1.449 0 2.623-1.174 2.623-2.622v-34.382c0-1.448-1.174-2.622-2.623-2.622" fill="#d8d8d8"/></g></g><text transform="matrix(1 0 0 -1 58.631 75.644)" fill="#000000" font-family="'Ubuntu Light'" font-size="12px" font-weight="300"><tspan x="0 8.3039999 15.168 21.743999" y="0">HTTP</tspan></text>
<g clip-path="url(#clipPath100)"><g transform="translate(204.82 59.733)"><path d="m0 0h-57.701c-1.448 0-2.622 1.174-2.622 2.622v34.382c0 1.448 1.174 2.622 2.622 2.622h57.701c1.448 0 2.622-1.174 2.622-2.622v-34.382c0-1.448-1.174-2.622-2.622-2.622" fill="#d8d8d8"/></g></g><text transform="matrix(1 0 0 -1 159.51 75.644)" fill="#000000" font-family="'Ubuntu Light'" font-size="12px" font-weight="300"><tspan x="0 10.38 19.476 26.34" y="0">MQTT</tspan></text>
<g clip-path="url(#clipPath116)"><g transform="translate(307.73 59.733)"><path d="m0 0h-57.7c-1.449 0-2.623 1.174-2.623 2.622v34.382c0 1.448 1.174 2.622 2.623 2.622h57.7c1.448 0 2.623-1.174 2.623-2.622v-34.382c0-1.448-1.175-2.622-2.623-2.622" fill="#d8d8d8"/></g><g transform="translate(278.88 141.26)"><path d="m0 0v-37.72" fill="none" stroke="#d8d8d8" stroke-miterlimit="10"/></g><g transform="translate(274.79 137.95)"><path d="m0 0 0.732-0.683 3.357 3.613 3.357-3.613 0.733 0.683-4.09 4.397z" fill="#d8d8d8"/></g><g transform="translate(274.79 106.86)"><path d="m0 0 0.732 0.682 3.357-3.612 3.357 3.612 0.733-0.682-4.09-4.398z" fill="#d8d8d8"/></g></g><text transform="matrix(1 0 0 -1 264.33 75.644)" fill="#000000" font-family="'Ubuntu Light'" font-size="12px" font-weight="300"><tspan x="0 7.3080001 14.292 21.983999" y="0">CoAP</tspan></text>
<g clip-path="url(#clipPath144)"><g transform="translate(307.73 297.22)"><path d="m0 0h-57.7c-1.449 0-2.623 1.174-2.623 2.623v34.381c0 1.449 1.174 2.622 2.623 2.622h57.7c1.448 0 2.623-1.173 2.623-2.622v-34.381c0-1.449-1.175-2.623-2.623-2.623" fill="#d8d8d8"/></g><g transform="translate(278.88 293.77)"><path d="m0 0v-32.047" fill="none" stroke="#d8d8d8" stroke-miterlimit="10"/></g><g transform="translate(274.79 290.45)"><path d="m0 0 0.732-0.682 3.357 3.612 3.357-3.612 0.733 0.682-4.09 4.398z" fill="#d8d8d8"/></g><g transform="translate(274.79 265.03)"><path d="m0 0 0.732 0.682 3.357-3.612 3.357 3.612 0.733-0.682-4.09-4.398z" fill="#d8d8d8"/></g></g><text transform="matrix(1 0 0 -1 252.04 313.13)" fill="#000000" font-family="'Ubuntu Light'" font-size="12px" font-weight="300"><tspan x="0 7.6919999 18.072001 27.360001 34.464001 37.200001 43.967999 46.919998" y="0">AMQP 1.0</tspan></text>
<g clip-path="url(#clipPath172)"><g transform="translate(410.64 59.733)"><path d="m0 0h-57.7c-1.448 0-2.623 1.174-2.623 2.622v34.382c0 1.448 1.175 2.622 2.623 2.622h57.7c1.449 0 2.623-1.174 2.623-2.622v-34.382c0-1.448-1.174-2.622-2.623-2.622" fill="#d8d8d8"/></g></g><text transform="matrix(1 0 0 -1 354.95 75.644)" fill="#000000" font-family="'Ubuntu Light'" font-size="12px" font-weight="300"><tspan x="0 7.6919999 18.072001 27.360001 34.464001 37.200001 43.967999 46.919998" y="0">AMQP 1.0</tspan></text>
<g clip-path="url(#clipPath188)"><g transform="translate(513.55 59.733)"><path d="m0 0h-57.7c-1.449 0-2.623 1.174-2.623 2.622v34.382c0 1.448 1.174 2.622 2.623 2.622h57.7c1.448 0 2.622-1.174 2.622-2.622v-34.382c0-1.448-1.174-2.622-2.622-2.622" fill="#d8d8d8"/></g><g transform="translate(73.055 59.733)"><path d="m0 0v-17.526" fill="none" stroke="#d8d8d8" stroke-miterlimit="10"/></g><g transform="translate(175.97 59.733)"><path d="m0 0v-17.526" fill="none" stroke="#d8d8d8" stroke-miterlimit="10"/></g><g transform="translate(278.88 59.733)"><path d="m0 0v-17.526" fill="none" stroke="#d8d8d8" stroke-miterlimit="10"/></g><g transform="translate(278.88 354.35)"><path d="m0 0v-17.525" fill="none" stroke="#d8d8d8" stroke-miterlimit="10"/></g><g transform="translate(381.79 59.733)"><path d="m0 0v-17.526" fill="none" stroke="#d8d8d8" stroke-miterlimit="10"/></g><g transform="translate(484.7 59.733)"><path d="m0 0v-17.526" fill="none" stroke="#d8d8d8" stroke-miterlimit="10"/></g></g><text transform="matrix(1 0 0 -1 464.13 75.644)" fill="#000000" font-family="'Ubuntu Light'" font-size="12px" font-weight="300"><tspan x="0 7.1999998 14.028 19.164 23.808001 30.792" y="0">Custom</tspan></text>
<g clip-path="url(#clipPath228)"><g transform="translate(73.055 102.43)"><path d="m0 0v29.623c0 1.367 0.976 2.54 2.32 2.788l132.78 24.496" fill="none" stroke="#d8d8d8" stroke-miterlimit="10"/></g><g transform="translate(77.145 105.74)"><path d="m0 0-0.732 0.682-3.357-3.612-3.357 3.612-0.733-0.682 4.09-4.398z" fill="#d8d8d8"/></g><g transform="translate(205.64 154.71)"><path d="m0 0-0.804 0.597 2.944 3.956-4.161 2.646 0.538 0.844 5.066-3.224z" fill="#d8d8d8"/></g><g transform="translate(484.7 102.43)"><path d="m0 0v29.623c0 1.367-0.976 2.54-2.32 2.788l-132.78 24.496" fill="none" stroke="#d8d8d8" stroke-miterlimit="10"/></g><g transform="translate(488.79 105.74)"><path d="m0 0-0.732 0.682-3.357-3.612-3.357 3.612-0.733-0.682 4.09-4.398z" fill="#d8d8d8"/></g><g transform="translate(353.6 162.76)"><path d="m0 0 0.538-0.844-4.161-2.645 2.943-3.957-0.803-0.597-3.583 4.82z" fill="#d8d8d8"/></g><g transform="translate(381.79 102.43)"><path d="m0 0v15.297c0 1.224-0.787 2.31-1.951 2.693l-41.588 13.655" fill="none" stroke="#d8d8d8" stroke-miterlimit="10"/></g><g transform="translate(385.88 105.74)"><path d="m0 0-0.732 0.682-3.357-3.612-3.357 3.612-0.733-0.682 4.09-4.398z" fill="#d8d8d8"/></g><g transform="translate(342.67 136.93)"><path d="m0 0 0.42-0.909-4.479-2.062 2.384-4.317-0.876-0.483-2.903 5.258z" fill="#d8d8d8"/></g><g transform="translate(176.31 102.43)"><path d="m0 0v15.297c0 1.224 0.786 2.31 1.95 2.693l41.588 13.655" fill="none" stroke="#d8d8d8" stroke-miterlimit="10"/></g><g transform="translate(180.4 105.74)"><path d="m0 0-0.732 0.682-3.357-3.612-3.357 3.612-0.733-0.682 4.09-4.398z" fill="#d8d8d8"/></g><g transform="translate(217.97 129.15)"><path d="m0 0-0.877 0.482 2.385 4.317-4.479 2.062 0.419 0.91 5.455-2.514z" fill="#d8d8d8"/></g><g transform="translate(.4254 42.519)"><path d="m0 0h556.9" fill="none" stroke="#d8d8d8" stroke-miterlimit="10"/></g><g transform="translate(.4254 354.33)"><path d="m0 0h556.9" fill="none" stroke="#d8d8d8" stroke-miterlimit="10"/></g></g><g clip-path="url(#clipPath292)"><g transform="translate(172.3 6.2645)"><path d="m0 0c0-0.477-0.387-0.863-0.864-0.863h-12.097c-0.477 0-0.864 0.386-0.864 0.863v25.491c0 0.477 0.387 0.864 0.864 0.864h12.097c0.477 0 0.864-0.387 0.864-0.864z" fill="#f6b771"/></g><g transform="translate(173.4 9.8533)"><path d="m0 0h-16.026" fill="none" stroke="#fff"/></g><g transform="translate(173.4 28.665)"><path d="m0 0h-16.026" fill="none" stroke="#fff"/></g><g transform="translate(163.08 30.688)"><path d="m0 0h4.618" fill="none" stroke="#fff"/></g><g transform="translate(164.83 7.6541)"><path d="m0 0h1.128" fill="none" stroke="#fff"/></g><g transform="translate(19.318 18.859)"><path d="m0 0 14.962 14.961 14.962-14.961h-1.809v-13.458h-14.568v12.512h-8.861v-12.512h-2.876v13.458z" fill="#f6b771"/></g><g transform="translate(31.361,10.615)"><path d="m0 0h-1.824" fill="none" stroke="#f6b771"/></g><g transform="translate(84.294 5.4012)"><path d="m0 0c-2.023 0-3.665 1.679-3.665 3.751 0 2.071 1.642 3.751 3.665 3.751s3.665-1.68 3.665-3.751c0-2.072-1.642-3.751-3.665-3.751" fill="#f6b771"/></g><g transform="translate(123.53 5.4012)"><path d="m0 0c-2.023 0-3.664 1.679-3.664 3.751 0 2.071 1.641 3.751 3.664 3.751 2.024 0 3.665-1.68 3.665-3.751 0-2.072-1.641-3.751-3.665-3.751" fill="#f6b771"/></g><g transform="translate(133.91 14.407)"><path d="m0 0s0.805 1.685-5.301 3.443c0 0-7.239 2.245-14.77 2.058l-8.629 4.589s-7.276 2.394-17.037-0.449c0 0-4.387-1.782-9.433-3.728 0 0-4.314 0.486-5.776-0.149 0 0-0.511-0.684-0.439-1.497l0.183-0.413s-0.073-1.758-1.792-3.442l-0.146-2.433 1.353-3.031 6.142-0.86 0.582-0.055c-0.029 0.234-0.049 0.47-0.049 0.712 0 3.108 2.461 5.626 5.497 5.626s5.497-2.518 5.497-5.626c0-0.597-0.093-1.17-0.26-1.709l0.359-0.034 27.64-1e-3h0.78c-0.174 0.55-0.272 1.135-0.272 1.744 0 3.108 2.461 5.626 5.497 5.626s5.497-2.518 5.497-5.626c0-0.609-0.098-1.194-0.272-1.743h0.25s4.461-0.074 4.826 1.123l0.256 2.956s-0.439 1.011-0.183 2.919" fill="#f6b771"/></g><g transform="translate(87.044 19.315)"><path d="m0 0c-0.401 0-0.799 0.09-1.153 0.282-0.907 0.493-2.188 1.464 6.549 2.897l1.503-3.179z" fill="#fff"/></g><g transform="translate(111.49 18.617)"><path d="m 0,0 -15.11,0.728 -1.644,3.663 c 2.729,0.523 6.96,-0.233 6.96,-0.233 C -7.405,3.926 0,0 0,0" fill="#fff"/></g><g transform="translate(427.1 5.4012)"><path d="m0 0h-16.215c-0.815 0-1.482 0.667-1.482 1.481v25.457c0 0.815 0.667 1.482 1.482 1.482h16.215c0.815 0 1.482-0.667 1.482-1.482v-25.457c0-0.814-0.667-1.481-1.482-1.481" fill="#f6b771"/></g><g transform="translate(425.96 17.334)"><path d="m0 0c0-3.948-3.201-7.149-7.148-7.149-3.949 0-7.15 3.201-7.15 7.149 0 3.947 3.201 7.148 7.15 7.148 3.947 0 7.148-3.201 7.148-7.148" fill="#fff"/></g><g transform="translate(412.87 21.782)"><path d="m0 0c3.336-1.285 1.888-5.041 5.223-6.326 3.336-1.286 4.783 2.47 8.118 1.184" fill="none" stroke="#f6b771"/></g><g transform="translate(408.97 28.531)"><path d="m0 0h20.029" fill="none" stroke="#fff"/></g><g transform="translate(426.6 31.13)"><path d="m0 0h-1.273" fill="none" stroke="#fff"/></g><g transform="translate(424.22 31.13)"><path d="m0 0h-1.272" fill="none" stroke="#fff"/></g><g transform="translate(526.78 25.192)"><path d="m0 0h1.125c0.726 0 1.313 0.588 1.313 1.312v3.416" fill="none" stroke="#f6b771" stroke-linecap="round"/></g><g transform="translate(503.13 25.192)"><path d="m0 0h1.7" fill="none" stroke="#f6b771" stroke-linecap="round"/></g><g transform="translate(507.57 5.4012)"><path d="m0 0c-1.51 0-2.745 1.234-2.745 2.744v19.029c0 1.51 1.235 2.746 2.745 2.746s2.744-1.236 2.744-2.746v-19.029c0-1.51-1.234-2.744-2.744-2.744" fill="#f6b771"/></g><g transform="translate(507.57 5.4012)"><path d="m0 0c-1.51 0-2.745 1.234-2.745 2.744v19.029c0 1.51 1.235 2.746 2.745 2.746s2.744-1.236 2.744-2.746v-19.029c0-1.51-1.234-2.744-2.744-2.744z" fill="none" stroke="#fff"/></g><g transform="translate(513.06 5.4012)"><path d="m0 0c-1.51 0-2.745 1.234-2.745 2.744v19.029c0 1.51 1.235 2.746 2.745 2.746s2.745-1.236 2.745-2.746v-19.029c0-1.51-1.235-2.744-2.745-2.744" fill="#f6b771"/></g><g transform="translate(513.06 5.4012)"><path d="m0 0c-1.51 0-2.745 1.234-2.745 2.744v19.029c0 1.51 1.235 2.746 2.745 2.746s2.745-1.236 2.745-2.746v-19.029c0-1.51-1.235-2.744-2.745-2.744z" fill="none" stroke="#fff"/></g><g transform="translate(518.55 5.4012)"><path d="m0 0c-1.509 0-2.744 1.234-2.744 2.744v19.029c0 1.51 1.235 2.746 2.744 2.746 1.51 0 2.745-1.236 2.745-2.746v-19.029c0-1.51-1.235-2.744-2.745-2.744" fill="#f6b771"/></g><g transform="translate(518.55 5.4012)"><path d="m0 0c-1.509 0-2.744 1.234-2.744 2.744v19.029c0 1.51 1.235 2.746 2.744 2.746 1.51 0 2.745-1.236 2.745-2.746v-19.029c0-1.51-1.235-2.744-2.745-2.744z" fill="none" stroke="#fff"/></g><g transform="translate(524.04 5.4012)"><path d="m0 0c-1.51 0-2.745 1.234-2.745 2.744v19.029c0 1.51 1.235 2.746 2.745 2.746s2.744-1.236 2.744-2.746v-19.029c0-1.51-1.234-2.744-2.744-2.744" fill="#f6b771"/></g><g transform="translate(524.04 5.4012)"><path d="m0 0c-1.51 0-2.745 1.234-2.745 2.744v19.029c0 1.51 1.235 2.746 2.745 2.746s2.744-1.236 2.744-2.746v-19.029c0-1.51-1.234-2.744-2.744-2.744z" fill="none" stroke="#fff"/></g><g transform="translate(476.67 33.821)"><path d="m0 0v-8.083l-6.529-4.446v4.472l-6.569-4.472v4.472l-6.569-4.472v4.472l-6.568-4.585v-15.778h31.662v28.42z" fill="#f6b771"/></g><g transform="translate(370 9.6131)"><path d="m0 0c-1.247-1.249-3.274-1.249-4.523 0-1.249 1.25-1.249 3.274 0 4.526 1.249 1.247 3.274 1.25 4.523 0 1.252-1.252 1.254-3.277 0-4.526m3.554 2.995c-0.127 1.02-0.523 2.011-1.185 2.862 0.234 0.291 0.218 0.715-0.051 0.985-0.271 0.271-0.693 0.283-0.985 0.052-0.853 0.662-1.842 1.054-2.86 1.184-0.04 0.372-0.354 0.659-0.735 0.659-0.383 0-0.688-0.287-0.73-0.66-1.019-0.126-2.013-0.521-2.864-1.183-0.29 0.234-0.715 0.215-0.982-0.052-0.271-0.27-0.286-0.694-0.051-0.985-0.664-0.851-1.058-1.842-1.189-2.861-0.37-0.04-0.658-0.351-0.658-0.733 0-0.381 0.288-0.692 0.66-0.731 0.129-1.02 0.523-2.011 1.187-2.864-0.235-0.29-0.22-0.715 0.051-0.984 0.267-0.27 0.692-0.285 0.982-0.051 0.851-0.662 1.845-1.056 2.864-1.185 0.038-0.371 0.347-0.66 0.73-0.66 0.381 0 0.695 0.289 0.735 0.66 1.018 0.129 2.007 0.523 2.86 1.185 0.292-0.234 0.714-0.219 0.983 0.051 0.271 0.269 0.287 0.694 0.055 0.984 0.66 0.853 1.056 1.844 1.183 2.864 0.37 0.039 0.663 0.35 0.663 0.731 0 0.382-0.293 0.691-0.663 0.732" fill="#f6b771"/></g><g transform="translate(386.32 8.0477)"><path d="m0 0c-1.218 0-2.205 0.99-2.205 2.209 0 1.218 0.987 2.208 2.205 2.208 1.224 0 2.21-0.99 2.21-2.208 0-1.219-0.986-2.209-2.21-2.209m4.015 2.714c-0.093 0.738-0.384 1.414-0.82 1.974 0.16 0.201 0.152 0.494-0.032 0.68-0.187 0.187-0.48 0.195-0.682 0.034-0.557 0.437-1.236 0.728-1.974 0.82-0.028 0.255-0.241 0.457-0.507 0.457-0.26 0-0.475-0.202-0.502-0.457-0.74-0.092-1.416-0.383-1.977-0.82-0.2 0.161-0.493 0.153-0.679-0.034-0.186-0.186-0.194-0.477-0.034-0.68-0.436-0.56-0.726-1.236-0.817-1.974-0.257-0.029-0.458-0.244-0.458-0.505 0-0.265 0.201-0.478 0.458-0.505 0.091-0.74 0.381-1.415 0.817-1.975-0.16-0.199-0.152-0.495 0.034-0.68 0.186-0.188 0.479-0.197 0.679-0.034 0.561-0.435 1.237-0.727 1.977-0.819 0.027-0.256 0.242-0.457 0.502-0.457 0.266 0 0.479 0.201 0.507 0.457 0.738 0.092 1.417 0.384 1.974 0.819 0.202-0.163 0.495-0.154 0.682 0.034 0.184 0.185 0.192 0.481 0.032 0.68 0.436 0.56 0.727 1.235 0.82 1.975 0.256 0.027 0.457 0.24 0.457 0.505 0 0.264-0.201 0.476-0.457 0.505" fill="#f6b771"/></g><g transform="translate(386.32 11.594)"><path d="m0 0c-0.736 0-1.334-0.6-1.334-1.337 0-0.739 0.598-1.338 1.334-1.338 0.741 0 1.341 0.599 1.341 1.338 0 0.737-0.6 1.337-1.341 1.337" fill="#f6b771"/></g><g transform="translate(366.79 12.822)"><path d="m0 0c-0.525-0.522-0.525-1.369 0-1.893 0.522-0.523 1.37-0.522 1.892 0 0.522 0.524 0.522 1.371 0 1.893s-1.37 0.522-1.892 0" fill="#f6b771"/></g><g transform="translate(370.54 24.11)"><path d="m0 0v1.636h3.733c0.163 0 1.123-0.023 1.274-0.071l2.264-3.408h-7.271zm18.514-7.094c-0.142 0.897-0.581 1.601-1.163 2.15-1.779 1.68-4.891 1.928-4.891 1.928v-1e-3c-2e-3 1e-3 -9e-3 4e-3 -0.011 4e-3 -0.048 0.36-0.231 0.677-0.503 0.892v2.43h-0.428v3.336h-0.725v-3.336h-0.425v-2.358c-0.201-0.132-0.36-0.313-0.468-0.528l-0.468 0.365-2.194 3.026-1.13 1.561-4e-3 1e-3c-0.97 0.722-2.091 0.723-2.091 0.723h-9.101l-0.047-5.205-3.038-2.036v-2.703c0.553 0 1.025 0.329 1.238 0.802 1.14 0.621 2.45 0.98 3.842 0.98 4.078 0 7.447-3.029 7.985-6.962h5.479c0.367 1.143 1.069 2.129 1.997 2.846 0.07 0.057 0.148 0.111 0.224 0.162 0.068 0.05 0.136 0.095 0.205 0.139 0.911 0.582 1.993 0.921 3.149 0.921 0.734 0 1.428-0.135 2.075-0.379 0.058-0.02 0.118-0.045 0.174-0.069 0.012-4e-3 0.019-7e-3 0.031-9e-3h0.288c0.071 0.482 0.063 0.919 0 1.32" fill="#f6b771"/></g><g transform="translate(210.52 9.2078)"><path d="M 0,0 C 0,0 17.4,11.722 8.639,18.397 4.268,21.728 0,17.107 0,17.107 c 0,0 -4.267,4.621 -8.638,1.29 C -17.399,11.722 0,0 0,0" fill="#f6b771"/></g><g transform="translate(213.45 18.017)"><path d="m0 0h9.25l1.314-4.979 2.811 11.562 2.453-8.241 1.547 3.512 0.699-1.757 1.068 3.03 0.662-2.97h1.435" fill="none" stroke="#fff" stroke-linecap="round" stroke-linejoin="round" stroke-miterlimit="10" stroke-width="3"/></g><g transform="translate(213.45 18.017)"><path d="m0 0h9.25l1.314-4.979 2.811 11.562 2.453-8.241 1.547 3.512 0.699-1.757 1.068 3.03 0.662-2.97h1.435" fill="none" stroke="#f6b771" stroke-linecap="round" stroke-linejoin="round" stroke-miterlimit="10"/></g><g transform="translate(331.16 6.4764)"><path d="m0 0h-1.701l0.294 16.055h1.113z" fill="#f6b771"/></g><g transform="translate(331.28 25.811)"><path d="m0 0c0-2.136-0.437-3.039-0.976-3.039s-0.975 0.903-0.975 3.039 0.436 8.01 0.975 8.01 0.976-5.874 0.976-8.01" fill="#f6b771"/></g><g transform="translate(332.43 19.993)"><path d="m0 0c-1.737 1.242-2.217 2.122-1.903 2.561 0.313 0.438 1.301 0.269 3.039-0.974 1.737-1.242 6.26-5.015 5.947-5.453-0.313-0.439-5.346 2.623-7.083 3.866" fill="#f6b771"/></g><g transform="translate(328.18 19.993)"><path d="m0 0c1.736 1.242 2.217 2.122 1.903 2.561-0.313 0.438-1.301 0.269-3.039-0.974-1.737-1.242-6.26-5.015-5.947-5.453 0.313-0.439 5.346 2.623 7.083 3.866" fill="#f6b771"/></g><g transform="translate(331.42 22.772)"><path d="m0 0c0-0.612-0.497-1.109-1.11-1.109-0.614 0-1.111 0.497-1.111 1.109 0 0.613 0.497 1.11 1.111 1.11 0.613 0 1.11-0.497 1.11-1.11" fill="#fff"/></g><g transform="translate(331.15 22.772)"><path d="m0 0c0-0.465-0.377-0.841-0.842-0.841s-0.842 0.376-0.842 0.841 0.377 0.842 0.842 0.842 0.842-0.377 0.842-0.842" fill="#f6b771"/></g><g transform="translate(331.72 5.4012)"><path d="m0 0h-2.82l0.224 0.647c0.041 0.118 0.153 0.197 0.278 0.197h1.815c0.125 0 0.236-0.079 0.277-0.197z" fill="#f6b771"/></g></g><g transform="translate(192.83 181.68)"><path d="m0 0-54.638-10.127v11.393l54.638 10.127z" fill="#fff" fill-rule="evenodd"/></g></g></svg>
