<?xml version="1.0" standalone="yes"?>

<svg version="1.1" viewBox="0.0 0.0 434.23359580052494 283.6902887139108" fill="none" stroke="none" stroke-linecap="square" stroke-miterlimit="10" xmlns="http://www.w3.org/2000/svg" xmlns:xlink="http://www.w3.org/1999/xlink"><clipPath id="p.0"><path d="m0 0l434.23358 0l0 283.69028l-434.23358 0l0 -283.69028z" clip-rule="nonzero"></path></clipPath><g clip-path="url(#p.0)"><path fill="#000000" fill-opacity="0.0" d="m0 0l434.23358 0l0 283.69028l-434.23358 0z" fill-rule="evenodd"></path><path fill="#000000" fill-opacity="0.0" d="m161.13911 11.118111l207.99998 0l0 96.566925l-207.99998 0z" fill-rule="evenodd"></path><path stroke="#000000" stroke-width="1.0" stroke-linejoin="round" stroke-linecap="butt" stroke-dasharray="1.0,3.0" d="m161.13911 11.118111l207.99998 0l0 96.566925l-207.99998 0z" fill-rule="evenodd"></path><path fill="#666666" d="m227.54596 28.123735l0.9375 -0.125q0.046875 0.890625 0.34375 1.234375q0.296875 0.328125 0.828125 0.328125q0.390625 0 0.671875 -0.171875q0.296875 -0.1875 0.40625 -0.484375q0.109375 -0.3125 0.109375 -1.0l0 -5.421875l1.03125 0l0 5.359375q0 1.0 -0.234375 1.546875q-0.234375 0.53125 -0.765625 0.828125q-0.515625 0.28125 -1.203125 0.28125q-1.046875 0 -1.59375 -0.59375q-0.546875 -0.609375 -0.53125 -1.78125zm5.828125 2.234375l0 -7.875l1.578125 0l1.859375 5.578125q0.25 0.78125 0.375 1.15625q0.140625 -0.421875 0.421875 -1.25l1.875 -5.484375l1.40625 0l0 7.875l-1.0 0l0 -6.59375l-2.296875 6.59375l-0.9375 0l-2.265625 -6.703125l0 6.703125l-1.015625 0zm12.6892395 -1.84375l1.0 0.125q-0.234375 0.875 -0.875 1.359375q-0.640625 0.484375 -1.625 0.484375q-1.25 0 -1.984375 -0.765625q-0.734375 -0.765625 -0.734375 -2.15625q0 -1.453125 0.734375 -2.234375q0.75 -0.796875 1.921875 -0.796875q1.15625 0 1.875 0.78125q0.71875 0.765625 0.71875 2.1875q0 0.078125 0 0.25l-4.25 0q0.046875 0.9375 0.515625 1.4375q0.484375 0.5 1.203125 0.5q0.53125 0 0.90625 -0.265625q0.375 -0.28125 0.59375 -0.90625zm-3.171875 -1.5625l3.1875 0q-0.0625 -0.71875 -0.359375 -1.078125q-0.46875 -0.546875 -1.203125 -0.546875q-0.671875 0 -1.125 0.453125q-0.453125 0.4375 -0.5 1.171875zm7.3171234 2.546875l0.125 0.84375q-0.40625 0.09375 -0.71875 0.09375q-0.53125 0 -0.828125 -0.171875q-0.28125 -0.171875 -0.40625 -0.4375q-0.109375 -0.265625 -0.109375 -1.140625l0 -3.28125l-0.71875 0l0 -0.75l0.71875 0l0 -1.40625l0.953125 -0.59375l0 2.0l0.984375 0l0 0.75l-0.984375 0l0 3.34375q0 0.40625 0.046875 0.53125q0.0625 0.109375 0.171875 0.1875q0.125 0.0625 0.328125 0.0625q0.171875 0 0.4375 -0.03125zm4.7418976 -0.984375l1.0 0.125q-0.234375 0.875 -0.875 1.359375q-0.640625 0.484375 -1.625 0.484375q-1.25 0 -1.984375 -0.765625q-0.734375 -0.765625 -0.734375 -2.15625q0 -1.453125 0.734375 -2.234375q0.75 -0.796875 1.921875 -0.796875q1.15625 0 1.875 0.78125q0.71875 0.765625 0.71875 2.1875q0 0.078125 0 0.25l-4.25 0q0.046875 0.9375 0.515625 1.4375q0.484375 0.5 1.203125 0.5q0.53125 0 0.90625 -0.265625q0.375 -0.28125 0.59375 -0.90625zm-3.171875 -1.5625l3.1875 0q-0.0625 -0.71875 -0.359375 -1.078125q-0.46875 -0.546875 -1.203125 -0.546875q-0.671875 0 -1.125 0.453125q-0.453125 0.4375 -0.5 1.171875zm5.192108 3.40625l0 -5.703125l0.859375 0l0 0.859375q0.34375 -0.609375 0.625 -0.796875q0.28125 -0.1875 0.609375 -0.1875q0.5 0 1.0 0.3125l-0.328125 0.890625q-0.359375 -0.203125 -0.71875 -0.203125q-0.3125 0 -0.5625 0.1875q-0.25 0.1875 -0.359375 0.53125q-0.15625 0.515625 -0.15625 1.125l0 2.984375l-0.96875 0zm6.8217773 0l0 -7.875l1.03125 0l0 7.875l-1.03125 0zm2.6481323 0l0 -5.703125l0.875 0l0 0.8125q0.625 -0.9375 1.8125 -0.9375q0.515625 0 0.953125 0.1875q0.4375 0.171875 0.640625 0.484375q0.21875 0.296875 0.3125 0.703125q0.046875 0.28125 0.046875 0.953125l0 3.5l-0.96875 0l0 -3.46875q0 -0.59375 -0.109375 -0.875q-0.109375 -0.296875 -0.40625 -0.46875q-0.28125 -0.1875 -0.671875 -0.1875q-0.609375 0 -1.0625 0.390625q-0.453125 0.390625 -0.453125 1.5l0 3.109375l-0.96875 0zm5.5515137 -1.703125l0.953125 -0.15625q0.078125 0.578125 0.4375 0.890625q0.375 0.296875 1.03125 0.296875q0.671875 0 0.984375 -0.265625q0.328125 -0.265625 0.328125 -0.640625q0 -0.328125 -0.28125 -0.515625q-0.203125 -0.125 -0.984375 -0.328125q-1.0625 -0.265625 -1.484375 -0.453125q-0.40625 -0.203125 -0.625 -0.546875q-0.203125 -0.34375 -0.203125 -0.765625q0 -0.390625 0.171875 -0.703125q0.171875 -0.328125 0.484375 -0.546875q0.21875 -0.171875 0.609375 -0.28125q0.390625 -0.109375 0.828125 -0.109375q0.671875 0 1.171875 0.1875q0.515625 0.1875 0.75 0.53125q0.25 0.328125 0.34375 0.875l-0.9375 0.125q-0.078125 -0.4375 -0.390625 -0.671875q-0.296875 -0.25 -0.859375 -0.25q-0.671875 0 -0.953125 0.21875q-0.28125 0.21875 -0.28125 0.515625q0 0.1875 0.109375 0.328125q0.125 0.15625 0.375 0.265625q0.140625 0.046875 0.859375 0.25q1.015625 0.265625 1.421875 0.4375q0.40625 0.171875 0.640625 0.515625q0.234375 0.328125 0.234375 0.828125q0 0.484375 -0.28125 0.90625q-0.28125 0.421875 -0.8125 0.65625q-0.53125 0.234375 -1.203125 0.234375q-1.109375 0 -1.703125 -0.453125q-0.578125 -0.46875 -0.734375 -1.375zm7.828125 0.84375l0.125 0.84375q-0.40625 0.09375 -0.71875 0.09375q-0.53125 0 -0.828125 -0.171875q-0.28125 -0.171875 -0.40625 -0.4375q-0.109375 -0.265625 -0.109375 -1.140625l0 -3.28125l-0.71875 0l0 -0.75l0.71875 0l0 -1.40625l0.953125 -0.59375l0 2.0l0.984375 0l0 0.75l-0.984375 0l0 3.34375q0 0.40625 0.046875 0.53125q0.0625 0.109375 0.171875 0.1875q0.125 0.0625 0.328125 0.0625q0.171875 0 0.4375 -0.03125zm4.5700073 0.15625q-0.546875 0.453125 -1.046875 0.640625q-0.484375 0.1875 -1.0625 0.1875q-0.9375 0 -1.453125 -0.453125q-0.5 -0.46875 -0.5 -1.171875q0 -0.421875 0.1875 -0.765625q0.203125 -0.34375 0.5 -0.546875q0.3125 -0.21875 0.703125 -0.328125q0.28125 -0.078125 0.859375 -0.140625q1.171875 -0.140625 1.71875 -0.34375q0.015625 -0.1875 0.015625 -0.25q0 -0.59375 -0.28125 -0.828125q-0.359375 -0.328125 -1.09375 -0.328125q-0.6875 0 -1.015625 0.234375q-0.3125 0.234375 -0.46875 0.84375l-0.953125 -0.125q0.125 -0.609375 0.421875 -0.984375q0.296875 -0.375 0.859375 -0.5625q0.5625 -0.203125 1.296875 -0.203125q0.734375 0 1.1875 0.171875q0.453125 0.171875 0.65625 0.4375q0.21875 0.25 0.3125 0.640625q0.046875 0.25 0.046875 0.90625l0 1.28125q0 1.34375 0.0625 1.703125q0.0625 0.359375 0.25 0.6875l-1.015625 0q-0.15625 -0.296875 -0.1875 -0.703125zm-0.09375 -2.15625q-0.515625 0.21875 -1.578125 0.359375q-0.59375 0.09375 -0.84375 0.203125q-0.234375 0.09375 -0.375 0.3125q-0.140625 0.203125 -0.140625 0.453125q0 0.390625 0.296875 0.65625q0.296875 0.25 0.859375 0.25q0.5625 0 0.984375 -0.25q0.4375 -0.25 0.65625 -0.671875q0.140625 -0.328125 0.140625 -0.96875l0 -0.34375zm2.2858887 2.859375l0 -5.703125l0.875 0l0 0.8125q0.625 -0.9375 1.8125 -0.9375q0.515625 0 0.953125 0.1875q0.4375 0.171875 0.640625 0.484375q0.21875 0.296875 0.3125 0.703125q0.046875 0.28125 0.046875 0.953125l0 3.5l-0.96875 0l0 -3.46875q0 -0.59375 -0.109375 -0.875q-0.109375 -0.296875 -0.40625 -0.46875q-0.28125 -0.1875 -0.671875 -0.1875q-0.609375 0 -1.0625 0.390625q-0.453125 0.390625 -0.453125 1.5l0 3.109375l-0.96875 0zm9.660858 -2.09375l0.9375 0.125q-0.140625 0.984375 -0.796875 1.546875q-0.640625 0.546875 -1.5625 0.546875q-1.171875 0 -1.890625 -0.765625q-0.703125 -0.765625 -0.703125 -2.1875q0 -0.921875 0.296875 -1.609375q0.3125 -0.703125 0.9375 -1.046875q0.625 -0.34375 1.359375 -0.34375q0.921875 0 1.515625 0.46875q0.59375 0.46875 0.765625 1.328125l-0.953125 0.140625q-0.125 -0.5625 -0.46875 -0.84375q-0.34375 -0.296875 -0.828125 -0.296875q-0.71875 0 -1.1875 0.53125q-0.453125 0.515625 -0.453125 1.640625q0 1.15625 0.4375 1.671875q0.4375 0.515625 1.15625 0.515625q0.5625 0 0.9375 -0.34375q0.390625 -0.34375 0.5 -1.078125zm5.5 0.25l1.0 0.125q-0.234375 0.875 -0.875 1.359375q-0.640625 0.484375 -1.625 0.484375q-1.25 0 -1.984375 -0.765625q-0.734375 -0.765625 -0.734375 -2.15625q0 -1.453125 0.734375 -2.234375q0.75 -0.796875 1.921875 -0.796875q1.15625 0 1.875 0.78125q0.71875 0.765625 0.71875 2.1875q0 0.078125 0 0.25l-4.25 0q0.046875 0.9375 0.515625 1.4375q0.484375 0.5 1.203125 0.5q0.53125 0 0.90625 -0.265625q0.375 -0.28125 0.59375 -0.90625zm-3.171875 -1.5625l3.1875 0q-0.0625 -0.71875 -0.359375 -1.078125q-0.46875 -0.546875 -1.203125 -0.546875q-0.671875 0 -1.125 0.453125q-0.453125 0.4375 -0.5 1.171875z" fill-rule="nonzero"></path><path fill="#efefef" d="m169.85869 40.998917l93.44881 0l0 27.685043l-93.44881 0z" fill-rule="evenodd"></path><path stroke="#000000" stroke-width="1.0" stroke-linejoin="round" stroke-linecap="butt" d="m169.85869 40.998917l93.44881 0l0 27.685043l-93.44881 0z" fill-rule="evenodd"></path><path fill="#000000" d="m184.77841 52.52144l0 -5.734375l0.765625 0l0 2.359375l2.96875 0l0 -2.359375l0.765625 0l0 5.734375l-0.765625 0l0 -2.703125l-2.96875 0l0 2.703125l-0.765625 0zm7.2148438 0l0 -5.046875l-1.890625 0l0 -0.6875l4.546875 0l0 0.6875l-1.90625 0l0 5.046875l-0.75 0zm4.8867188 0l0 -5.046875l-1.890625 0l0 -0.6875l4.546875 0l0 0.6875l-1.90625 0l0 5.046875l-0.75 0zm3.4335938 0l0 -5.734375l2.15625 0q0.5625 0 0.875 0.0625q0.421875 0.0625 0.703125 0.265625q0.28125 0.203125 0.453125 0.5625q0.171875 0.34375 0.171875 0.765625q0 0.734375 -0.46875 1.25q-0.453125 0.5 -1.671875 0.5l-1.46875 0l0 2.328125l-0.75 0zm0.75 -3.0l1.484375 0q0.734375 0 1.03125 -0.265625q0.3125 -0.28125 0.3125 -0.78125q0 -0.359375 -0.1875 -0.609375q-0.171875 -0.265625 -0.46875 -0.34375q-0.1875 -0.046875 -0.703125 -0.046875l-1.46875 0l0 2.046875zm3.9609375 3.09375l1.65625 -5.921875l0.5625 0l-1.65625 5.921875l-0.5625 0zm2.8164062 -0.09375l0 -5.734375l1.140625 0l1.359375 4.0625q0.1875 0.5625 0.265625 0.84375q0.109375 -0.3125 0.3125 -0.921875l1.375 -3.984375l1.015625 0l0 5.734375l-0.734375 0l0 -4.796875l-1.65625 4.796875l-0.6875 0l-1.65625 -4.875l0 4.875l-0.734375 0zm11.0234375 -0.609375q0.53125 0.359375 0.984375 0.53125l-0.234375 0.53125q-0.609375 -0.234375 -1.21875 -0.71875q-0.640625 0.359375 -1.40625 0.359375q-0.78125 0 -1.421875 -0.375q-0.625 -0.375 -0.96875 -1.046875q-0.34375 -0.6875 -0.34375 -1.53125q0 -0.859375 0.34375 -1.546875q0.34375 -0.703125 0.96875 -1.0625q0.640625 -0.359375 1.4375 -0.359375q0.78125 0 1.421875 0.375q0.640625 0.375 0.96875 1.0625q0.34375 0.671875 0.34375 1.515625q0 0.71875 -0.21875 1.28125q-0.21875 0.5625 -0.65625 0.984375zm-1.65625 -0.96875q0.65625 0.171875 1.078125 0.546875q0.671875 -0.609375 0.671875 -1.84375q0 -0.6875 -0.25 -1.203125q-0.234375 -0.53125 -0.6875 -0.8125q-0.453125 -0.28125 -1.015625 -0.28125q-0.84375 0 -1.40625 0.578125q-0.5625 0.578125 -0.5625 1.734375q0 1.109375 0.546875 1.71875q0.5625 0.59375 1.421875 0.59375q0.40625 0 0.765625 -0.15625q-0.359375 -0.234375 -0.75 -0.328125l0.1875 -0.546875zm5.0039062 1.578125l0 -5.046875l-1.890625 0l0 -0.6875l4.546875 0l0 0.6875l-1.90625 0l0 5.046875l-0.75 0zm4.8867188 0l0 -5.046875l-1.890625 0l0 -0.6875l4.546875 0l0 0.6875l-1.90625 0l0 5.046875l-0.75 0zm2.8085938 0.09375l1.65625 -5.921875l0.5625 0l-1.65625 5.921875l-0.5625 0zm2.8164062 -0.09375l0 -5.734375l0.75 0l0 2.84375l2.84375 -2.84375l1.03125 0l-2.40625 2.328125l2.515625 3.40625l-1.0 0l-2.046875 -2.90625l-0.9375 0.921875l0 1.984375l-0.75 0zm7.9921875 0l0 -0.609375q-0.484375 0.703125 -1.3125 0.703125q-0.375 0 -0.703125 -0.140625q-0.3125 -0.140625 -0.46875 -0.34375q-0.140625 -0.21875 -0.203125 -0.53125q-0.046875 -0.203125 -0.046875 -0.65625l0 -2.578125l0.703125 0l0 2.3125q0 0.546875 0.046875 0.734375q0.0625 0.28125 0.265625 0.4375q0.21875 0.15625 0.546875 0.15625q0.3125 0 0.578125 -0.15625q0.28125 -0.171875 0.390625 -0.4375q0.125 -0.28125 0.125 -0.8125l0 -2.234375l0.703125 0l0 4.15625l-0.625 0zm1.7148438 0l0 -4.15625l0.640625 0l0 0.640625q0.234375 -0.453125 0.4375 -0.59375q0.21875 -0.140625 0.453125 -0.140625q0.359375 0 0.734375 0.234375l-0.25 0.65625q-0.25 -0.15625 -0.515625 -0.15625q-0.234375 0 -0.421875 0.140625q-0.171875 0.140625 -0.25 0.375q-0.125 0.375 -0.125 0.828125l0 2.171875l-0.703125 0zm5.3828125 -0.515625q-0.390625 0.328125 -0.75 0.46875q-0.359375 0.140625 -0.78125 0.140625q-0.671875 0 -1.046875 -0.328125q-0.359375 -0.34375 -0.359375 -0.859375q0 -0.3125 0.125 -0.5625q0.140625 -0.25 0.359375 -0.390625q0.234375 -0.15625 0.515625 -0.234375q0.203125 -0.0625 0.625 -0.109375q0.859375 -0.109375 1.25 -0.25q0.015625 -0.140625 0.015625 -0.171875q0 -0.4375 -0.203125 -0.609375q-0.265625 -0.234375 -0.796875 -0.234375q-0.5 0 -0.734375 0.171875q-0.234375 0.171875 -0.359375 0.609375l-0.6875 -0.09375q0.09375 -0.4375 0.3125 -0.703125q0.21875 -0.28125 0.625 -0.421875q0.40625 -0.15625 0.9375 -0.15625q0.53125 0 0.859375 0.125q0.34375 0.125 0.5 0.328125q0.15625 0.1875 0.21875 0.46875q0.03125 0.1875 0.03125 0.65625l0 0.9375q0 0.96875 0.046875 1.234375q0.046875 0.265625 0.171875 0.5l-0.734375 0q-0.109375 -0.21875 -0.140625 -0.515625zm-0.0625 -1.5625q-0.375 0.15625 -1.140625 0.265625q-0.4375 0.0625 -0.625 0.140625q-0.171875 0.078125 -0.265625 0.234375q-0.09375 0.140625 -0.09375 0.328125q0 0.28125 0.203125 0.46875q0.21875 0.1875 0.625 0.1875q0.40625 0 0.71875 -0.171875q0.328125 -0.1875 0.46875 -0.5q0.109375 -0.234375 0.109375 -0.703125l0 -0.25z" fill-rule="nonzero"></path><path fill="#000000" d="m204.04404 60.67769l0.71875 -0.0625q0.046875 0.4375 0.234375 0.71875q0.1875 0.265625 0.578125 0.4375q0.390625 0.171875 0.875 0.171875q0.4375 0 0.765625 -0.125q0.328125 -0.140625 0.484375 -0.359375q0.171875 -0.234375 0.171875 -0.5q0 -0.265625 -0.15625 -0.46875q-0.15625 -0.203125 -0.515625 -0.328125q-0.234375 -0.09375 -1.03125 -0.28125q-0.78125 -0.1875 -1.09375 -0.359375q-0.40625 -0.21875 -0.609375 -0.53125q-0.203125 -0.328125 -0.203125 -0.71875q0 -0.4375 0.25 -0.8125q0.25 -0.375 0.71875 -0.5625q0.46875 -0.203125 1.046875 -0.203125q0.640625 0 1.125 0.203125q0.484375 0.203125 0.75 0.609375q0.265625 0.390625 0.28125 0.90625l-0.734375 0.046875q-0.046875 -0.546875 -0.390625 -0.8125q-0.34375 -0.28125 -1.0 -0.28125q-0.6875 0 -1.0 0.25q-0.3125 0.25 -0.3125 0.609375q0 0.3125 0.21875 0.5q0.21875 0.203125 1.140625 0.421875q0.921875 0.203125 1.265625 0.359375q0.5 0.234375 0.734375 0.59375q0.25 0.34375 0.25 0.796875q0 0.46875 -0.265625 0.875q-0.265625 0.390625 -0.75 0.625q-0.484375 0.21875 -1.109375 0.21875q-0.765625 0 -1.296875 -0.21875q-0.53125 -0.234375 -0.828125 -0.6875q-0.296875 -0.453125 -0.3125 -1.03125zm8.3515625 0.5l0.71875 0.09375q-0.171875 0.640625 -0.640625 1.0q-0.453125 0.34375 -1.1875 0.34375q-0.90625 0 -1.4375 -0.5625q-0.53125 -0.5625 -0.53125 -1.578125q0 -1.046875 0.53125 -1.625q0.546875 -0.578125 1.40625 -0.578125q0.828125 0 1.359375 0.578125q0.53125 0.5625 0.53125 1.59375q0 0.0625 -0.015625 0.1875l-3.09375 0q0.046875 0.671875 0.390625 1.046875q0.34375 0.359375 0.875 0.359375q0.375 0 0.640625 -0.203125q0.28125 -0.203125 0.453125 -0.65625zm-2.3125 -1.125l2.3125 0q-0.046875 -0.53125 -0.265625 -0.796875q-0.328125 -0.40625 -0.875 -0.40625q-0.484375 0 -0.8125 0.328125q-0.328125 0.328125 -0.359375 0.875zm3.9179688 2.46875l0 -4.15625l0.625 0l0 0.59375q0.46875 -0.6875 1.328125 -0.6875q0.375 0 0.6875 0.140625q0.3125 0.140625 0.46875 0.359375q0.15625 0.21875 0.21875 0.515625q0.046875 0.1875 0.046875 0.6875l0 2.546875l-0.703125 0l0 -2.53125q0 -0.421875 -0.09375 -0.625q-0.078125 -0.21875 -0.296875 -0.34375q-0.203125 -0.140625 -0.484375 -0.140625q-0.4375 0 -0.765625 0.296875q-0.328125 0.28125 -0.328125 1.078125l0 2.265625l-0.703125 0zm7.1367188 0l0 -0.53125q-0.390625 0.625 -1.15625 0.625q-0.5 0 -0.921875 -0.265625q-0.40625 -0.28125 -0.640625 -0.765625q-0.21875 -0.5 -0.21875 -1.140625q0 -0.609375 0.203125 -1.109375q0.203125 -0.515625 0.609375 -0.78125q0.421875 -0.28125 0.9375 -0.28125q0.375 0 0.65625 0.171875q0.296875 0.15625 0.484375 0.40625l0 -2.0625l0.703125 0l0 5.734375l-0.65625 0zm-2.21875 -2.078125q0 0.796875 0.328125 1.203125q0.34375 0.390625 0.796875 0.390625q0.46875 0 0.78125 -0.375q0.328125 -0.375 0.328125 -1.15625q0 -0.84375 -0.328125 -1.234375q-0.328125 -0.40625 -0.8125 -0.40625q-0.46875 0 -0.78125 0.390625q-0.3125 0.375 -0.3125 1.1875zm6.8242188 0.734375l0.71875 0.09375q-0.171875 0.640625 -0.640625 1.0q-0.453125 0.34375 -1.1875 0.34375q-0.90625 0 -1.4375 -0.5625q-0.53125 -0.5625 -0.53125 -1.578125q0 -1.046875 0.53125 -1.625q0.546875 -0.578125 1.40625 -0.578125q0.828125 0 1.359375 0.578125q0.53125 0.5625 0.53125 1.59375q0 0.0625 -0.015625 0.1875l-3.09375 0q0.046875 0.671875 0.390625 1.046875q0.34375 0.359375 0.875 0.359375q0.375 0 0.640625 -0.203125q0.28125 -0.203125 0.453125 -0.65625zm-2.3125 -1.125l2.3125 0q-0.046875 -0.53125 -0.265625 -0.796875q-0.328125 -0.40625 -0.875 -0.40625q-0.484375 0 -0.8125 0.328125q-0.328125 0.328125 -0.359375 0.875zm3.9023438 2.46875l0 -4.15625l0.640625 0l0 0.640625q0.234375 -0.453125 0.4375 -0.59375q0.21875 -0.140625 0.453125 -0.140625q0.359375 0 0.734375 0.234375l-0.25 0.65625q-0.25 -0.15625 -0.515625 -0.15625q-0.234375 0 -0.421875 0.140625q-0.171875 0.140625 -0.25 0.375q-0.125 0.375 -0.125 0.828125l0 2.171875l-0.703125 0z" fill-rule="nonzero"></path><path fill="#000000" fill-opacity="0.0" d="m232.29631 199.74533l36.598434 0.09449768" fill-rule="evenodd"></path><path stroke="#ff9900" stroke-width="1.0" stroke-linejoin="round" stroke-linecap="butt" d="m232.29633 199.74535l30.59845 0.07901001" fill-rule="evenodd"></path><path fill="#ff9900" stroke="#ff9900" stroke-width="1.0" stroke-linecap="butt" d="m262.8905 201.47607l4.5423584 -1.6400146l-4.533844 -1.6634369z" fill-rule="evenodd"></path><path fill="#000000" fill-opacity="0.0" d="m169.85869 85.832726l-24.999985 0l0 50.03512l40.716522 0l0 36.201096" fill-rule="evenodd"></path><path stroke="#ff9900" stroke-width="1.0" stroke-linejoin="round" stroke-linecap="butt" d="m169.85869 85.832726l-24.999985 0l0 50.03512l40.716507 0l0 30.201096" fill-rule="evenodd"></path><path fill="#ff9900" stroke="#ff9900" stroke-width="1.0" stroke-linecap="butt" d="m183.92348 166.06894l1.6517334 4.538101l1.6517334 -4.538101z" fill-rule="evenodd"></path><path fill="#000000" fill-opacity="0.0" d="m360.10236 70.15745l58.946747 0l0 129.66928l-25.151459 0" fill-rule="evenodd"></path><path stroke="#ff9900" stroke-width="1.0" stroke-linejoin="round" stroke-linecap="butt" d="m366.10236 70.15745l52.946747 0l0 129.66928l-25.151459 0" fill-rule="evenodd"></path><path fill="#ff9900" stroke="#ff9900" stroke-width="1.0" stroke-linecap="butt" d="m366.10236 68.505714l-4.538086 1.6517334l4.538086 1.6517334z" fill-rule="evenodd"></path><path fill="#efefef" d="m169.85869 71.990204l93.44881 0l0 27.685036l-93.44881 0z" fill-rule="evenodd"></path><path stroke="#000000" stroke-width="1.0" stroke-linejoin="round" stroke-linecap="butt" d="m169.85869 71.990204l93.44881 0l0 27.685036l-93.44881 0z" fill-rule="evenodd"></path><path fill="#000000" d="m204.72055 83.07272l0 -7.875l1.046875 0l0 3.234375l4.09375 0l0 -3.234375l1.046875 0l0 7.875l-1.046875 0l0 -3.71875l-4.09375 0l0 3.71875l-1.046875 0zm7.1799774 -2.859375q0 -1.578125 0.890625 -2.34375q0.734375 -0.625 1.796875 -0.625q1.171875 0 1.90625 0.765625q0.75 0.765625 0.75 2.125q0 1.109375 -0.328125 1.75q-0.328125 0.625 -0.96875 0.96875q-0.625 0.34375 -1.359375 0.34375q-1.203125 0 -1.953125 -0.765625q-0.734375 -0.765625 -0.734375 -2.21875zm1.0 0q0 1.109375 0.46875 1.65625q0.484375 0.53125 1.21875 0.53125q0.71875 0 1.1875 -0.546875q0.484375 -0.546875 0.484375 -1.671875q0 -1.046875 -0.484375 -1.59375q-0.484375 -0.546875 -1.1875 -0.546875q-0.734375 0 -1.21875 0.546875q-0.46875 0.53125 -0.46875 1.625zm5.2858734 2.859375l0 -5.703125l0.875 0l0 0.8125q0.625 -0.9375 1.8125 -0.9375q0.515625 0 0.953125 0.1875q0.4375 0.171875 0.640625 0.484375q0.21875 0.296875 0.3125 0.703125q0.046875 0.28125 0.046875 0.953125l0 3.5l-0.96875 0l0 -3.46875q0 -0.59375 -0.109375 -0.875q-0.109375 -0.296875 -0.40625 -0.46875q-0.28125 -0.1875 -0.671875 -0.1875q-0.609375 0 -1.0625 0.390625q-0.453125 0.390625 -0.453125 1.5l0 3.109375l-0.96875 0zm5.5671234 -2.859375q0 -1.578125 0.890625 -2.34375q0.734375 -0.625 1.796875 -0.625q1.171875 0 1.90625 0.765625q0.75 0.765625 0.75 2.125q0 1.109375 -0.328125 1.75q-0.328125 0.625 -0.96875 0.96875q-0.625 0.34375 -1.359375 0.34375q-1.203125 0 -1.953125 -0.765625q-0.734375 -0.765625 -0.734375 -2.21875zm1.0 0q0 1.109375 0.46875 1.65625q0.484375 0.53125 1.21875 0.53125q0.71875 0 1.1875 -0.546875q0.484375 -0.546875 0.484375 -1.671875q0 -1.046875 -0.484375 -1.59375q-0.484375 -0.546875 -1.1875 -0.546875q-0.734375 0 -1.21875 0.546875q-0.46875 0.53125 -0.46875 1.625z" fill-rule="nonzero"></path><path fill="#000000" d="m199.90198 93.54147l0.984375 -0.078125q0.0625 0.578125 0.3125 0.96875q0.265625 0.375 0.796875 0.609375q0.53125 0.234375 1.203125 0.234375q0.609375 0 1.0625 -0.171875q0.453125 -0.1875 0.671875 -0.484375q0.234375 -0.3125 0.234375 -0.6875q0 -0.375 -0.21875 -0.640625q-0.21875 -0.28125 -0.71875 -0.46875q-0.3125 -0.125 -1.40625 -0.375q-1.078125 -0.265625 -1.515625 -0.5q-0.5625 -0.296875 -0.84375 -0.734375q-0.265625 -0.4375 -0.265625 -0.984375q0 -0.59375 0.328125 -1.109375q0.34375 -0.515625 0.984375 -0.78125q0.65625 -0.28125 1.453125 -0.28125q0.875 0 1.546875 0.296875q0.671875 0.28125 1.03125 0.828125q0.359375 0.546875 0.390625 1.234375l-1.0 0.078125q-0.078125 -0.75 -0.546875 -1.125q-0.46875 -0.390625 -1.375 -0.390625q-0.9375 0 -1.375 0.359375q-0.4375 0.34375 -0.4375 0.828125q0 0.421875 0.3125 0.703125q0.296875 0.265625 1.5625 0.5625q1.28125 0.28125 1.75 0.5q0.6875 0.3125 1.015625 0.796875q0.328125 0.484375 0.328125 1.125q0 0.625 -0.359375 1.1875q-0.359375 0.546875 -1.046875 0.859375q-0.671875 0.3125 -1.515625 0.3125q-1.0625 0 -1.78125 -0.3125q-0.71875 -0.3125 -1.140625 -0.9375q-0.40625 -0.625 -0.421875 -1.421875zm11.2326355 0.6875l1.0 0.125q-0.234375 0.875 -0.875 1.359375q-0.640625 0.484375 -1.625 0.484375q-1.25 0 -1.984375 -0.765625q-0.734375 -0.765625 -0.734375 -2.15625q0 -1.453125 0.734375 -2.234375q0.75 -0.796875 1.921875 -0.796875q1.15625 0 1.875 0.78125q0.71875 0.765625 0.71875 2.1875q0 0.078125 0 0.25l-4.25 0q0.046875 0.9375 0.515625 1.4375q0.484375 0.5 1.203125 0.5q0.53125 0 0.90625 -0.265625q0.375 -0.28125 0.59375 -0.90625zm-3.171875 -1.5625l3.1875 0q-0.0625 -0.71875 -0.359375 -1.078125q-0.46875 -0.546875 -1.203125 -0.546875q-0.671875 0 -1.125 0.453125q-0.453125 0.4375 -0.5 1.171875zm5.1921234 3.40625l0 -5.703125l0.875 0l0 0.8125q0.625 -0.9375 1.8125 -0.9375q0.515625 0 0.953125 0.1875q0.4375 0.171875 0.640625 0.484375q0.21875 0.296875 0.3125 0.703125q0.046875 0.28125 0.046875 0.953125l0 3.5l-0.96875 0l0 -3.46875q0 -0.59375 -0.109375 -0.875q-0.109375 -0.296875 -0.40625 -0.46875q-0.28125 -0.1875 -0.671875 -0.1875q-0.609375 0 -1.0625 0.390625q-0.453125 0.390625 -0.453125 1.5l0 3.109375l-0.96875 0zm9.629623 0l0 -0.71875q-0.53125 0.84375 -1.59375 0.84375q-0.671875 0 -1.25 -0.375q-0.578125 -0.375 -0.890625 -1.046875q-0.3125 -0.671875 -0.3125 -1.546875q0 -0.859375 0.28125 -1.546875q0.296875 -0.703125 0.859375 -1.0625q0.5625 -0.375 1.265625 -0.375q0.515625 0 0.921875 0.21875q0.40625 0.21875 0.65625 0.5625l0 -2.828125l0.96875 0l0 7.875l-0.90625 0zm-3.046875 -2.84375q0 1.09375 0.453125 1.640625q0.46875 0.53125 1.09375 0.53125q0.640625 0 1.078125 -0.515625q0.4375 -0.515625 0.4375 -1.578125q0 -1.171875 -0.453125 -1.71875q-0.4375 -0.546875 -1.109375 -0.546875q-0.640625 0 -1.078125 0.53125q-0.421875 0.515625 -0.421875 1.65625zm9.176498 1.0l1.0 0.125q-0.234375 0.875 -0.875 1.359375q-0.640625 0.484375 -1.625 0.484375q-1.25 0 -1.984375 -0.765625q-0.734375 -0.765625 -0.734375 -2.15625q0 -1.453125 0.734375 -2.234375q0.75 -0.796875 1.921875 -0.796875q1.15625 0 1.875 0.78125q0.71875 0.765625 0.71875 2.1875q0 0.078125 0 0.25l-4.25 0q0.046875 0.9375 0.515625 1.4375q0.484375 0.5 1.203125 0.5q0.53125 0 0.90625 -0.265625q0.375 -0.28125 0.59375 -0.90625zm-3.171875 -1.5625l3.1875 0q-0.0625 -0.71875 -0.359375 -1.078125q-0.46875 -0.546875 -1.203125 -0.546875q-0.671875 0 -1.125 0.453125q-0.453125 0.4375 -0.5 1.171875zm5.1921234 3.40625l0 -5.703125l0.859375 0l0 0.859375q0.34375 -0.609375 0.625 -0.796875q0.28125 -0.1875 0.609375 -0.1875q0.5 0 1.0 0.3125l-0.328125 0.890625q-0.359375 -0.203125 -0.71875 -0.203125q-0.3125 0 -0.5625 0.1875q-0.25 0.1875 -0.359375 0.53125q-0.15625 0.515625 -0.15625 1.125l0 2.984375l-0.96875 0z" fill-rule="nonzero"></path><path fill="#ff9900" d="m138.8475 172.0603l93.44881 0l0 55.37007l-93.44881 0z" fill-rule="evenodd"></path><path stroke="#000000" stroke-width="1.0" stroke-linejoin="round" stroke-linecap="butt" d="m138.8475 172.0603l93.44881 0l0 55.37007l-93.44881 0z" fill-rule="evenodd"></path><path fill="#000000" d="m173.70937 196.98534l0 -7.875l1.046875 0l0 3.234375l4.09375 0l0 -3.234375l1.046875 0l0 7.875l-1.046875 0l0 -3.71875l-4.09375 0l0 3.71875l-1.046875 0zm7.1799774 -2.859375q0 -1.578125 0.890625 -2.34375q0.734375 -0.625 1.796875 -0.625q1.171875 0 1.90625 0.765625q0.75 0.765625 0.75 2.125q0 1.109375 -0.328125 1.75q-0.328125 0.625 -0.96875 0.96875q-0.625 0.34375 -1.359375 0.34375q-1.203125 0 -1.953125 -0.765625q-0.734375 -0.765625 -0.734375 -2.21875zm1.0 0q0 1.109375 0.46875 1.65625q0.484375 0.53125 1.21875 0.53125q0.71875 0 1.1875 -0.546875q0.484375 -0.546875 0.484375 -1.671875q0 -1.046875 -0.484375 -1.59375q-0.484375 -0.546875 -1.1875 -0.546875q-0.734375 0 -1.21875 0.546875q-0.46875 0.53125 -0.46875 1.625zm5.2858734 2.859375l0 -5.703125l0.875 0l0 0.8125q0.625 -0.9375 1.8125 -0.9375q0.515625 0 0.953125 0.1875q0.4375 0.171875 0.640625 0.484375q0.21875 0.296875 0.3125 0.703125q0.046875 0.28125 0.046875 0.953125l0 3.5l-0.96875 0l0 -3.46875q0 -0.59375 -0.109375 -0.875q-0.109375 -0.296875 -0.40625 -0.46875q-0.28125 -0.1875 -0.671875 -0.1875q-0.609375 0 -1.0625 0.390625q-0.453125 0.390625 -0.453125 1.5l0 3.109375l-0.96875 0zm5.5671234 -2.859375q0 -1.578125 0.890625 -2.34375q0.734375 -0.625 1.796875 -0.625q1.171875 0 1.90625 0.765625q0.75 0.765625 0.75 2.125q0 1.109375 -0.328125 1.75q-0.328125 0.625 -0.96875 0.96875q-0.625 0.34375 -1.359375 0.34375q-1.203125 0 -1.953125 -0.765625q-0.734375 -0.765625 -0.734375 -2.21875zm1.0 0q0 1.109375 0.46875 1.65625q0.484375 0.53125 1.21875 0.53125q0.71875 0 1.1875 -0.546875q0.484375 -0.546875 0.484375 -1.671875q0 -1.046875 -0.484375 -1.59375q-0.484375 -0.546875 -1.1875 -0.546875q-0.734375 0 -1.21875 0.546875q-0.46875 0.53125 -0.46875 1.625z" fill-rule="nonzero"></path><path fill="#000000" d="m170.37892 207.45409l0.984375 -0.078125q0.0625 0.578125 0.3125 0.96875q0.265625 0.375 0.796875 0.609375q0.53125 0.234375 1.203125 0.234375q0.609375 0 1.0625 -0.171875q0.453125 -0.1875 0.671875 -0.484375q0.234375 -0.3125 0.234375 -0.6875q0 -0.375 -0.21875 -0.640625q-0.21875 -0.28125 -0.71875 -0.46875q-0.3125 -0.125 -1.40625 -0.375q-1.078125 -0.265625 -1.515625 -0.5q-0.5625 -0.296875 -0.84375 -0.734375q-0.265625 -0.4375 -0.265625 -0.984375q0 -0.59375 0.328125 -1.109375q0.34375 -0.515625 0.984375 -0.78125q0.65625 -0.28125 1.453125 -0.28125q0.875 0 1.546875 0.296875q0.671875 0.28125 1.03125 0.828125q0.359375 0.546875 0.390625 1.234375l-1.0 0.078125q-0.078125 -0.75 -0.546875 -1.125q-0.46875 -0.390625 -1.375 -0.390625q-0.9375 0 -1.375 0.359375q-0.4375 0.34375 -0.4375 0.828125q0 0.421875 0.3125 0.703125q0.296875 0.265625 1.5625 0.5625q1.28125 0.28125 1.75 0.5q0.6875 0.3125 1.015625 0.796875q0.328125 0.484375 0.328125 1.125q0 0.625 -0.359375 1.1875q-0.359375 0.546875 -1.046875 0.859375q-0.671875 0.3125 -1.515625 0.3125q-1.0625 0 -1.78125 -0.3125q-0.71875 -0.3125 -1.140625 -0.9375q-0.40625 -0.625 -0.421875 -1.421875zm11.2326355 0.6875l1.0 0.125q-0.234375 0.875 -0.875 1.359375q-0.640625 0.484375 -1.625 0.484375q-1.25 0 -1.984375 -0.765625q-0.734375 -0.765625 -0.734375 -2.15625q0 -1.453125 0.734375 -2.234375q0.75 -0.796875 1.921875 -0.796875q1.15625 0 1.875 0.78125q0.71875 0.765625 0.71875 2.1875q0 0.078125 0 0.25l-4.25 0q0.046875 0.9375 0.515625 1.4375q0.484375 0.5 1.203125 0.5q0.53125 0 0.90625 -0.265625q0.375 -0.28125 0.59375 -0.90625zm-3.171875 -1.5625l3.1875 0q-0.0625 -0.71875 -0.359375 -1.078125q-0.46875 -0.546875 -1.203125 -0.546875q-0.671875 0 -1.125 0.453125q-0.453125 0.4375 -0.5 1.171875zm5.1921234 3.40625l0 -5.703125l0.859375 0l0 0.859375q0.34375 -0.609375 0.625 -0.796875q0.28125 -0.1875 0.609375 -0.1875q0.5 0 1.0 0.3125l-0.328125 0.890625q-0.359375 -0.203125 -0.71875 -0.203125q-0.3125 0 -0.5625 0.1875q-0.25 0.1875 -0.359375 0.53125q-0.15625 0.515625 -0.15625 1.125l0 2.984375l-0.96875 0zm5.1423645 0l-2.171875 -5.703125l1.015625 0l1.234375 3.421875q0.1875 0.546875 0.359375 1.140625q0.125 -0.453125 0.359375 -1.078125l1.265625 -3.484375l1.0 0l-2.15625 5.703125l-0.90625 0zm7.640625 -1.84375l1.0 0.125q-0.234375 0.875 -0.875 1.359375q-0.640625 0.484375 -1.625 0.484375q-1.25 0 -1.984375 -0.765625q-0.734375 -0.765625 -0.734375 -2.15625q0 -1.453125 0.734375 -2.234375q0.75 -0.796875 1.921875 -0.796875q1.15625 0 1.875 0.78125q0.71875 0.765625 0.71875 2.1875q0 0.078125 0 0.25l-4.25 0q0.046875 0.9375 0.515625 1.4375q0.484375 0.5 1.203125 0.5q0.53125 0 0.90625 -0.265625q0.375 -0.28125 0.59375 -0.90625zm-3.171875 -1.5625l3.1875 0q-0.0625 -0.71875 -0.359375 -1.078125q-0.46875 -0.546875 -1.203125 -0.546875q-0.671875 0 -1.125 0.453125q-0.453125 0.4375 -0.5 1.171875zm5.1921234 3.40625l0 -5.703125l0.859375 0l0 0.859375q0.34375 -0.609375 0.625 -0.796875q0.28125 -0.1875 0.609375 -0.1875q0.5 0 1.0 0.3125l-0.328125 0.890625q-0.359375 -0.203125 -0.71875 -0.203125q-0.3125 0 -0.5625 0.1875q-0.25 0.1875 -0.359375 0.53125q-0.15625 0.515625 -0.15625 1.125l0 2.984375l-0.96875 0z" fill-rule="nonzero"></path><path fill="#f3f3f3" d="m266.65353 40.62989l93.44882 0l0 59.055115l-93.44882 0z" fill-rule="evenodd"></path><path stroke="#000000" stroke-width="1.0" stroke-linejoin="round" stroke-linecap="butt" d="m266.65353 40.62989l93.44882 0l0 59.055115l-93.44882 0z" fill-rule="evenodd"></path><path fill="#000000" d="m301.5154 67.397446l0 -7.874996l1.046875 0l0 3.234375l4.09375 0l0 -3.234375l1.046875 0l0 7.874996l-1.046875 0l0 -3.7187462l-4.09375 0l0 3.7187462l-1.046875 0zm7.179962 -2.859375q0 -1.5781212 0.890625 -2.3437462q0.734375 -0.625 1.796875 -0.625q1.171875 0 1.90625 0.765625q0.75 0.765625 0.75 2.1249962q0 1.109375 -0.328125 1.75q-0.328125 0.625 -0.96875 0.96875q-0.625 0.34375 -1.359375 0.34375q-1.203125 0 -1.953125 -0.765625q-0.734375 -0.765625 -0.734375 -2.21875zm1.0 0q0 1.109375 0.46875 1.65625q0.484375 0.53125 1.21875 0.53125q0.71875 0 1.1875 -0.546875q0.484375 -0.546875 0.484375 -1.671875q0 -1.0468712 -0.484375 -1.5937462q-0.484375 -0.546875 -1.1875 -0.546875q-0.734375 0 -1.21875 0.546875q-0.46875 0.53125 -0.46875 1.6249962zm5.2858887 2.859375l0 -5.703121l0.875 0l0 0.8125q0.625 -0.9375 1.8125 -0.9375q0.515625 0 0.953125 0.1875q0.4375 0.171875 0.640625 0.484375q0.21875 0.296875 0.3125 0.703125q0.046875 0.28125 0.046875 0.953125l0 3.4999962l-0.96875 0l0 -3.4687462q0 -0.59375 -0.109375 -0.875q-0.109375 -0.296875 -0.40625 -0.46875q-0.28125 -0.1875 -0.671875 -0.1875q-0.609375 0 -1.0625 0.390625q-0.453125 0.390625 -0.453125 1.4999962l0 3.109375l-0.96875 0zm5.567108 -2.859375q0 -1.5781212 0.890625 -2.3437462q0.734375 -0.625 1.796875 -0.625q1.171875 0 1.90625 0.765625q0.75 0.765625 0.75 2.1249962q0 1.109375 -0.328125 1.75q-0.328125 0.625 -0.96875 0.96875q-0.625 0.34375 -1.359375 0.34375q-1.203125 0 -1.953125 -0.765625q-0.734375 -0.765625 -0.734375 -2.21875zm1.0 0q0 1.109375 0.46875 1.65625q0.484375 0.53125 1.21875 0.53125q0.71875 0 1.1875 -0.546875q0.484375 -0.546875 0.484375 -1.671875q0 -1.0468712 -0.484375 -1.5937462q-0.484375 -0.546875 -1.1875 -0.546875q-0.734375 0 -1.21875 0.546875q-0.46875 0.53125 -0.46875 1.6249962z" fill-rule="nonzero"></path><path fill="#000000" d="m293.21362 80.397446l0 -7.875l3.5 0q1.046875 0 1.59375 0.21875q0.546875 0.203125 0.875 0.75q0.328125 0.53125 0.328125 1.1875q0 0.828125 -0.546875 1.40625q-0.53125 0.578125 -1.671875 0.734375q0.421875 0.1875 0.625 0.390625q0.46875 0.421875 0.875 1.046875l1.359375 2.140625l-1.296875 0l-1.046875 -1.640625q-0.453125 -0.703125 -0.75 -1.078125q-0.296875 -0.375 -0.53125 -0.53125q-0.234375 -0.15625 -0.46875 -0.203125q-0.1875 -0.046875 -0.59375 -0.046875l-1.203125 0l0 3.5l-1.046875 0zm1.046875 -4.40625l2.234375 0q0.71875 0 1.125 -0.140625q0.40625 -0.140625 0.609375 -0.46875q0.203125 -0.328125 0.203125 -0.703125q0 -0.5625 -0.40625 -0.921875q-0.390625 -0.359375 -1.265625 -0.359375l-2.5 0l0 2.59375zm10.414337 2.5625l1.0 0.125q-0.234375 0.875 -0.875 1.359375q-0.640625 0.484375 -1.625 0.484375q-1.25 0 -1.984375 -0.765625q-0.734375 -0.765625 -0.734375 -2.15625q0 -1.453125 0.734375 -2.234375q0.75 -0.796875 1.921875 -0.796875q1.15625 0 1.875 0.78125q0.71875 0.765625 0.71875 2.1875q0 0.078125 0 0.25l-4.25 0q0.046875 0.9375 0.515625 1.4375q0.484375 0.5 1.203125 0.5q0.53125 0 0.90625 -0.265625q0.375 -0.28125 0.59375 -0.90625zm-3.171875 -1.5625l3.1875 0q-0.0625 -0.71875 -0.359375 -1.078125q-0.46875 -0.546875 -1.203125 -0.546875q-0.671875 0 -1.125 0.453125q-0.453125 0.4375 -0.5 1.171875zm8.926514 1.3125l0.9375 0.125q-0.140625 0.984375 -0.796875 1.546875q-0.640625 0.546875 -1.5625 0.546875q-1.171875 0 -1.890625 -0.765625q-0.703125 -0.765625 -0.703125 -2.1875q0 -0.921875 0.296875 -1.609375q0.3125 -0.703125 0.9375 -1.046875q0.625 -0.34375 1.359375 -0.34375q0.921875 0 1.515625 0.46875q0.59375 0.46875 0.765625 1.328125l-0.953125 0.140625q-0.125 -0.5625 -0.46875 -0.84375q-0.34375 -0.296875 -0.828125 -0.296875q-0.71875 0 -1.1875 0.53125q-0.453125 0.515625 -0.453125 1.640625q0 1.15625 0.4375 1.671875q0.4375 0.515625 1.15625 0.515625q0.5625 0 0.9375 -0.34375q0.390625 -0.34375 0.5 -1.078125zm5.5 0.25l1.0 0.125q-0.234375 0.875 -0.875 1.359375q-0.640625 0.484375 -1.625 0.484375q-1.25 0 -1.984375 -0.765625q-0.734375 -0.765625 -0.734375 -2.15625q0 -1.453125 0.734375 -2.234375q0.75 -0.796875 1.921875 -0.796875q1.15625 0 1.875 0.78125q0.71875 0.765625 0.71875 2.1875q0 0.078125 0 0.25l-4.25 0q0.046875 0.9375 0.515625 1.4375q0.484375 0.5 1.203125 0.5q0.53125 0 0.90625 -0.265625q0.375 -0.28125 0.59375 -0.90625zm-3.171875 -1.5625l3.1875 0q-0.0625 -0.71875 -0.359375 -1.078125q-0.46875 -0.546875 -1.203125 -0.546875q-0.671875 0 -1.125 0.453125q-0.453125 0.4375 -0.5 1.171875zm5.207733 -3.359375l0 -1.109375l0.96875 0l0 1.109375l-0.96875 0zm0 6.765625l0 -5.703125l0.96875 0l0 5.703125l-0.96875 0zm3.9456177 0l-2.171875 -5.703125l1.015625 0l1.234375 3.421875q0.1875 0.546875 0.359375 1.140625q0.125 -0.453125 0.359375 -1.078125l1.265625 -3.484375l1.0 0l-2.15625 5.703125l-0.90625 0zm7.640625 -1.84375l1.0 0.125q-0.234375 0.875 -0.875 1.359375q-0.640625 0.484375 -1.625 0.484375q-1.25 0 -1.984375 -0.765625q-0.734375 -0.765625 -0.734375 -2.15625q0 -1.453125 0.734375 -2.234375q0.75 -0.796875 1.921875 -0.796875q1.15625 0 1.875 0.78125q0.71875 0.765625 0.71875 2.1875q0 0.078125 0 0.25l-4.25 0q0.046875 0.9375 0.515625 1.4375q0.484375 0.5 1.203125 0.5q0.53125 0 0.90625 -0.265625q0.375 -0.28125 0.59375 -0.90625zm-3.171875 -1.5625l3.1875 0q-0.0625 -0.71875 -0.359375 -1.078125q-0.46875 -0.546875 -1.203125 -0.546875q-0.671875 0 -1.125 0.453125q-0.453125 0.4375 -0.5 1.171875zm5.192108 3.40625l0 -5.703125l0.859375 0l0 0.859375q0.34375 -0.609375 0.625 -0.796875q0.28125 -0.1875 0.609375 -0.1875q0.5 0 1.0 0.3125l-0.328125 0.890625q-0.359375 -0.203125 -0.71875 -0.203125q-0.3125 0 -0.5625 0.1875q-0.25 0.1875 -0.359375 0.53125q-0.15625 0.515625 -0.15625 1.125l0 2.984375l-0.96875 0z" fill-rule="nonzero"></path><path fill="#000000" fill-opacity="0.0" d="m102.16798 266.07605l29.228355 0" fill-rule="evenodd"></path><path stroke="#ff9900" stroke-width="2.0" stroke-linejoin="round" stroke-linecap="butt" d="m102.16798 266.07605l29.228355 0" fill-rule="evenodd"></path><path fill="#000000" fill-opacity="0.0" d="m132.51733 251.01213l83.14961 0l0 25.952744l-83.14961 0z" fill-rule="evenodd"></path><path fill="#434343" d="m141.50171 270.25214l3.03125 -7.875l1.109375 0l3.234375 7.875l-1.1875 0l-0.921875 -2.390625l-3.296875 0l-0.859375 2.390625l-1.109375 0zm2.265625 -3.234375l2.671875 0l-0.8125 -2.1875q-0.375 -0.984375 -0.5625 -1.625q-0.15625 0.75 -0.421875 1.5l-0.875 2.3125zm5.6701355 3.234375l0 -7.875l1.578125 0l1.859375 5.578125q0.25 0.78125 0.375 1.15625q0.140625 -0.421875 0.421875 -1.25l1.875 -5.484375l1.40625 0l0 7.875l-1.0 0l0 -6.59375l-2.296875 6.59375l-0.9375 0l-2.265625 -6.703125l0 6.703125l-1.015625 0zm14.8767395 -0.84375q0.734375 0.5 1.34375 0.734375l-0.3125 0.71875q-0.84375 -0.296875 -1.6875 -0.96875q-0.875 0.5 -1.9375 0.5q-1.0625 0 -1.9375 -0.515625q-0.875 -0.515625 -1.34375 -1.453125q-0.46875 -0.9375 -0.46875 -2.109375q0 -1.171875 0.46875 -2.125q0.484375 -0.953125 1.34375 -1.453125q0.875 -0.5 1.96875 -0.5q1.078125 0 1.953125 0.515625q0.875 0.515625 1.328125 1.453125q0.46875 0.9375 0.46875 2.109375q0 0.96875 -0.296875 1.75q-0.296875 0.765625 -0.890625 1.34375zm-2.296875 -1.328125q0.90625 0.25 1.5 0.75q0.90625 -0.84375 0.90625 -2.515625q0 -0.96875 -0.328125 -1.671875q-0.3125 -0.71875 -0.9375 -1.109375q-0.625 -0.390625 -1.40625 -0.390625q-1.171875 0 -1.9375 0.796875q-0.765625 0.796875 -0.765625 2.375q0 1.53125 0.75 2.359375q0.765625 0.828125 1.953125 0.828125q0.5625 0 1.046875 -0.21875q-0.484375 -0.3125 -1.03125 -0.453125l0.25 -0.75zm4.6168976 2.171875l0 -7.875l2.96875 0q0.796875 0 1.203125 0.078125q0.578125 0.09375 0.96875 0.375q0.390625 0.265625 0.625 0.75q0.25 0.484375 0.25 1.078125q0 1.0 -0.640625 1.703125q-0.640625 0.6875 -2.3125 0.6875l-2.015625 0l0 3.203125l-1.046875 0zm1.046875 -4.125l2.03125 0q1.015625 0 1.4375 -0.375q0.421875 -0.375 0.421875 -1.0625q0 -0.5 -0.25 -0.84375q-0.25 -0.359375 -0.65625 -0.46875q-0.265625 -0.0625 -0.96875 -0.0625l-2.015625 0l0 2.8125zm12.271408 4.125l-0.96875 0l0 -6.15625q-0.34375 0.328125 -0.90625 0.671875q-0.5625 0.328125 -1.015625 0.484375l0 -0.9375q0.8125 -0.375 1.40625 -0.90625q0.609375 -0.546875 0.859375 -1.0625l0.625 0l0 7.90625zm2.8327484 0l0 -1.09375l1.09375 0l0 1.09375l-1.09375 0zm2.4137726 -3.890625q0 -1.390625 0.28125 -2.234375q0.296875 -0.859375 0.859375 -1.3125q0.578125 -0.46875 1.4375 -0.46875q0.625 0 1.09375 0.265625q0.484375 0.25 0.796875 0.734375q0.3125 0.46875 0.484375 1.171875q0.1875 0.6875 0.1875 1.84375q0 1.390625 -0.296875 2.25q-0.28125 0.84375 -0.84375 1.3125q-0.5625 0.46875 -1.421875 0.46875q-1.140625 0 -1.796875 -0.828125q-0.78125 -0.984375 -0.78125 -3.203125zm1.0 0q0 1.953125 0.453125 2.59375q0.453125 0.640625 1.125 0.640625q0.65625 0 1.109375 -0.640625q0.453125 -0.65625 0.453125 -2.59375q0 -1.9375 -0.453125 -2.578125q-0.453125 -0.640625 -1.125 -0.640625q-0.671875 0 -1.0625 0.5625q-0.5 0.71875 -0.5 2.65625z" fill-rule="nonzero"></path><path fill="#efefef" d="m279.84445 186.62982l0 0c-1.0116577 -6.3594055 2.3098145 -12.654831 8.555023 -16.21489c6.245178 -3.5600586 14.318817 -3.7604065 20.794952 -0.5160217l0 0c2.2940369 -3.6976166 6.4928284 -6.2505646 11.326263 -6.8866425c4.8334656 -0.6360626 9.733887 0.71946716 13.218994 3.6565704l0 0c1.9542236 -3.3524933 5.791382 -5.60495 10.149872 -5.958069c4.3584595 -0.35310364 8.621429 1.2430878 11.276123 4.222168l0 0c3.5306091 -3.5536346 9.147888 -5.0498657 14.421204 -3.8412628c5.273346 1.2086182 9.255585 4.9049835 10.223572 9.48967l0 0c4.325592 1.0092468 7.928711 3.5748901 9.8784485 7.0340576c1.9497375 3.4591522 2.0548096 7.4725037 0.28805542 11.003098l0 0c4.2594604 4.741989 5.255829 11.060623 2.61734 16.5979c-2.6384888 5.5372925 -8.515472 9.461319 -15.437744 10.3076935c-0.048797607 5.196945 -3.3808289 9.965591 -8.711761 12.4678955c-5.330963 2.5023193 -11.828369 2.3475494 -16.987885 -0.40464783c-2.1976929 6.224243 -8.383423 10.80397 -15.884735 11.76059c-7.501343 0.95661926 -14.97348 -1.8813782 -19.188202 -7.287857c-5.166382 2.6648712 -11.365631 3.432541 -17.19928 2.1298218c-5.8336487 -1.3027039 -10.810333 -4.5660553 -13.807404 -9.053909l0 0c-5.2793884 0.52845764 -10.38385 -1.8112488 -12.780029 -5.8579407c-2.3961792 -4.0466766 -1.5740051 -8.938904 2.0585022 -12.248657l0 0c-4.7093506 -2.3709564 -7.1123657 -7.075714 -5.9559326 -11.660934c1.1564331 -4.5852203 5.6102295 -8.011871 11.03894 -8.493088z" fill-rule="evenodd"></path><path fill="#000000" fill-opacity="0.0" d="m274.6571 207.02893l0 0c2.222351 1.118866 4.7897034 1.6264038 7.3573303 1.454483m3.363037 16.652527c1.1041565 -0.11053467 2.1864624 -0.34458923 3.2189636 -0.6961212m27.786163 7.619919c-0.7766113 -0.99620056 -1.4268188 -2.0607147 -1.9395752 -3.1754303m37.013855 -1.2974854l0 0c0.40066528 -1.1347656 0.6602783 -2.3027039 0.7744751 -3.4842834m24.924194 -8.578537c0.051940918 -5.5329437 -3.6219482 -10.5989685 -9.4436035 -13.022049m22.263916 -13.88295c-0.94281006 1.8840637 -2.3821106 3.5554047 -4.2050476 4.88295m-5.9605713 -22.920609l0 0c0.16064453 0.76083374 0.23498535 1.5330963 0.22198486 2.3060913m-24.866364 -7.9542694l0 0c-0.8807068 0.88645935 -1.6062927 1.8770752 -2.1541748 2.940979m-19.272034 -1.2054596l0 0c-0.46932983 0.8051605 -0.8198242 1.6571655 -1.043335 2.536377m-23.502258 0.6937561l0 0c1.3703308 0.6865082 2.638092 1.5128021 3.7754211 2.4607086m-33.12503 14.270294l0 0c0.13943481 0.8764801 0.3597412 1.7421722 0.6588745 2.5889435" fill-rule="evenodd"></path><path stroke="#000000" stroke-width="1.0" stroke-linejoin="round" stroke-linecap="butt" d="m279.84445 186.62982l0 0c-1.0116577 -6.3594055 2.3098145 -12.654831 8.555023 -16.21489c6.245178 -3.5600586 14.318817 -3.7604065 20.794952 -0.5160217l0 0c2.2940369 -3.6976166 6.4928284 -6.2505646 11.326263 -6.8866425c4.8334656 -0.6360626 9.733887 0.71946716 13.218994 3.6565704l0 0c1.9542236 -3.3524933 5.791382 -5.60495 10.149872 -5.958069c4.3584595 -0.35310364 8.621429 1.2430878 11.276123 4.222168l0 0c3.5306091 -3.5536346 9.147888 -5.0498657 14.421204 -3.8412628c5.273346 1.2086182 9.255585 4.9049835 10.223572 9.48967l0 0c4.325592 1.0092468 7.928711 3.5748901 9.8784485 7.0340576c1.9497375 3.4591522 2.0548096 7.4725037 0.28805542 11.003098l0 0c4.2594604 4.741989 5.255829 11.060623 2.61734 16.5979c-2.6384888 5.5372925 -8.515472 9.461319 -15.437744 10.3076935c-0.048797607 5.196945 -3.3808289 9.965591 -8.711761 12.4678955c-5.330963 2.5023193 -11.828369 2.3475494 -16.987885 -0.40464783c-2.1976929 6.224243 -8.383423 10.80397 -15.884735 11.76059c-7.501343 0.95661926 -14.97348 -1.8813782 -19.188202 -7.287857c-5.166382 2.6648712 -11.365631 3.432541 -17.19928 2.1298218c-5.8336487 -1.3027039 -10.810333 -4.5660553 -13.807404 -9.053909l0 0c-5.2793884 0.52845764 -10.38385 -1.8112488 -12.780029 -5.8579407c-2.3961792 -4.0466766 -1.5740051 -8.938904 2.0585022 -12.248657l0 0c-4.7093506 -2.3709564 -7.1123657 -7.075714 -5.9559326 -11.660934c1.1564331 -4.5852203 5.6102295 -8.011871 11.03894 -8.493088z" fill-rule="evenodd"></path><path stroke="#000000" stroke-width="1.0" stroke-linejoin="round" stroke-linecap="butt" d="m274.6571 207.02893l0 0c2.222351 1.118866 4.7897034 1.6264038 7.3573303 1.454483m3.363037 16.652527c1.1041565 -0.11053467 2.1864624 -0.34458923 3.2189636 -0.6961212m27.786163 7.619919c-0.7766113 -0.99620056 -1.4268188 -2.0607147 -1.9395752 -3.1754303m37.013855 -1.2974854l0 0c0.40066528 -1.1347656 0.6602783 -2.3027039 0.7744751 -3.4842834m24.924194 -8.578537c0.051940918 -5.5329437 -3.6219482 -10.5989685 -9.4436035 -13.022049m22.263916 -13.88295c-0.94281006 1.8840637 -2.3821106 3.5554047 -4.2050476 4.88295m-5.9605713 -22.920609l0 0c0.16064453 0.76083374 0.23498535 1.5330963 0.22198486 2.3060913m-24.866364 -7.9542694l0 0c-0.8807068 0.88645935 -1.6062927 1.8770752 -2.1541748 2.940979m-19.272034 -1.2054596l0 0c-0.46932983 0.8051605 -0.8198242 1.6571655 -1.043335 2.536377m-23.502258 0.6937561l0 0c1.3703308 0.6865082 2.638092 1.5128021 3.7754211 2.4607086m-33.12503 14.270294l0 0c0.13943481 0.8764801 0.3597412 1.7421722 0.6588745 2.5889435" fill-rule="evenodd"></path><path fill="#000000" d="m311.08618 195.23734l3.03125 -7.875l1.109375 0l3.234375 7.875l-1.1875 0l-0.921875 -2.390625l-3.296875 0l-0.859375 2.390625l-1.109375 0zm2.265625 -3.234375l2.671875 0l-0.8125 -2.1875q-0.375 -0.984375 -0.5625 -1.625q-0.15625 0.75 -0.421875 1.5l-0.875 2.3125zm5.6701355 3.234375l0 -7.875l1.578125 0l1.859375 5.578125q0.25 0.78125 0.375 1.15625q0.140625 -0.421875 0.421875 -1.25l1.875 -5.484375l1.40625 0l0 7.875l-1.0 0l0 -6.59375l-2.296875 6.59375l-0.9375 0l-2.265625 -6.703125l0 6.703125l-1.015625 0zm14.8767395 -0.84375q0.734375 0.5 1.34375 0.734375l-0.3125 0.71875q-0.84375 -0.296875 -1.6875 -0.96875q-0.875 0.5 -1.9375 0.5q-1.0625 0 -1.9375 -0.515625q-0.875 -0.515625 -1.34375 -1.453125q-0.46875 -0.9375 -0.46875 -2.109375q0 -1.171875 0.46875 -2.125q0.484375 -0.953125 1.34375 -1.453125q0.875 -0.5 1.96875 -0.5q1.078125 0 1.953125 0.515625q0.875 0.515625 1.328125 1.453125q0.46875 0.9375 0.46875 2.109375q0 0.96875 -0.296875 1.75q-0.296875 0.765625 -0.890625 1.34375zm-2.296875 -1.328125q0.90625 0.25 1.5 0.75q0.90625 -0.84375 0.90625 -2.515625q0 -0.96875 -0.328125 -1.671875q-0.3125 -0.71875 -0.9375 -1.109375q-0.625 -0.390625 -1.40625 -0.390625q-1.171875 0 -1.9375 0.796875q-0.765625 0.796875 -0.765625 2.375q0 1.53125 0.75 2.359375q0.765625 0.828125 1.953125 0.828125q0.5625 0 1.046875 -0.21875q-0.484375 -0.3125 -1.03125 -0.453125l0.25 -0.75zm4.6168823 2.171875l0 -7.875l2.96875 0q0.796875 0 1.203125 0.078125q0.578125 0.09375 0.96875 0.375q0.390625 0.265625 0.625 0.75q0.25 0.484375 0.25 1.078125q0 1.0 -0.640625 1.703125q-0.640625 0.6875 -2.3125 0.6875l-2.015625 0l0 3.203125l-1.046875 0zm1.046875 -4.125l2.03125 0q1.015625 0 1.4375 -0.375q0.421875 -0.375 0.421875 -1.0625q0 -0.5 -0.25 -0.84375q-0.25 -0.359375 -0.65625 -0.46875q-0.265625 -0.0625 -0.96875 -0.0625l-2.015625 0l0 2.8125z" fill-rule="nonzero"></path><path fill="#000000" d="m308.09515 208.23734l0 -7.875l1.0625 0l4.140625 6.1875l0 -6.1875l1.0 0l0 7.875l-1.078125 0l-4.125 -6.1875l0 6.1875l-1.0 0zm11.476837 -1.84375l1.0 0.125q-0.234375 0.875 -0.875 1.359375q-0.640625 0.484375 -1.625 0.484375q-1.25 0 -1.984375 -0.765625q-0.734375 -0.765625 -0.734375 -2.15625q0 -1.453125 0.734375 -2.234375q0.75 -0.796875 1.921875 -0.796875q1.15625 0 1.875 0.78125q0.71875 0.765625 0.71875 2.1875q0 0.078125 0 0.25l-4.25 0q0.046875 0.9375 0.515625 1.4375q0.484375 0.5 1.203125 0.5q0.53125 0 0.90625 -0.265625q0.375 -0.28125 0.59375 -0.90625zm-3.171875 -1.5625l3.1875 0q-0.0625 -0.71875 -0.359375 -1.078125q-0.46875 -0.546875 -1.203125 -0.546875q-0.671875 0 -1.125 0.453125q-0.453125 0.4375 -0.5 1.171875zm7.3171387 2.546875l0.125 0.84375q-0.40625 0.09375 -0.71875 0.09375q-0.53125 0 -0.828125 -0.171875q-0.28125 -0.171875 -0.40625 -0.4375q-0.109375 -0.265625 -0.109375 -1.140625l0 -3.28125l-0.71875 0l0 -0.75l0.71875 0l0 -1.40625l0.953125 -0.59375l0 2.0l0.984375 0l0 0.75l-0.984375 0l0 3.34375q0 0.40625 0.046875 0.53125q0.0625 0.109375 0.171875 0.1875q0.125 0.0625 0.328125 0.0625q0.171875 0 0.4375 -0.03125zm1.8981323 0.859375l-1.75 -5.703125l1.0 0l0.90625 3.296875l0.34375 1.21875q0.015625 -0.09375 0.296875 -1.171875l0.90625 -3.34375l0.984375 0l0.859375 3.3125l0.28125 1.078125l0.328125 -1.09375l0.984375 -3.296875l0.9375 0l-1.78125 5.703125l-1.0 0l-0.921875 -3.421875l-0.21875 -0.96875l-1.15625 4.390625l-1.0 0zm6.2737427 -2.859375q0 -1.578125 0.890625 -2.34375q0.734375 -0.625 1.796875 -0.625q1.171875 0 1.90625 0.765625q0.75 0.765625 0.75 2.125q0 1.109375 -0.328125 1.75q-0.328125 0.625 -0.96875 0.96875q-0.625 0.34375 -1.359375 0.34375q-1.203125 0 -1.953125 -0.765625q-0.734375 -0.765625 -0.734375 -2.21875zm1.0 0q0 1.109375 0.46875 1.65625q0.484375 0.53125 1.21875 0.53125q0.71875 0 1.1875 -0.546875q0.484375 -0.546875 0.484375 -1.671875q0 -1.046875 -0.484375 -1.59375q-0.484375 -0.546875 -1.1875 -0.546875q-0.734375 0 -1.21875 0.546875q-0.46875 0.53125 -0.46875 1.625zm5.285858 2.859375l0 -5.703125l0.859375 0l0 0.859375q0.34375 -0.609375 0.625 -0.796875q0.28125 -0.1875 0.609375 -0.1875q0.5 0 1.0 0.3125l-0.328125 0.890625q-0.359375 -0.203125 -0.71875 -0.203125q-0.3125 0 -0.5625 0.1875q-0.25 0.1875 -0.359375 0.53125q-0.15625 0.515625 -0.15625 1.125l0 2.984375l-0.96875 0zm3.5642395 0l0 -7.875l0.96875 0l0 4.484375l2.28125 -2.3125l1.25 0l-2.171875 2.109375l2.390625 3.59375l-1.1875 0l-1.890625 -2.921875l-0.671875 0.65625l0 2.265625l-0.96875 0z" fill-rule="nonzero"></path><path fill="#000000" fill-opacity="0.0" d="m169.85869 54.84144l-112.755905 0l0 117.29134" fill-rule="evenodd"></path><path stroke="#000000" stroke-width="1.0" stroke-linejoin="round" stroke-linecap="butt" d="m169.85869 54.84144l-112.755905 0l0 111.29133" fill-rule="evenodd"></path><path fill="#000000" stroke="#000000" stroke-width="1.0" stroke-linecap="butt" d="m55.45105 166.13277l1.6517334 4.538101l1.6517334 -4.538101z" fill-rule="evenodd"></path><path fill="#000000" fill-opacity="0.0" d="m246.16798 266.0129l29.228348 0" fill-rule="evenodd"></path><path stroke="#000000" stroke-width="2.0" stroke-linejoin="round" stroke-linecap="butt" d="m246.16798 266.0129l29.228348 0" fill-rule="evenodd"></path><path fill="#000000" fill-opacity="0.0" d="m276.51733 250.94899l83.1496 0l0 25.952744l-83.1496 0z" fill-rule="evenodd"></path><path fill="#434343" d="m286.39233 270.189l0 -7.875l1.046875 0l0 3.234375l4.09375 0l0 -3.234375l1.046875 0l0 7.875l-1.046875 0l0 -3.71875l-4.09375 0l0 3.71875l-1.046875 0zm9.679993 0l0 -6.9375l-2.59375 0l0 -0.9375l6.234375 0l0 0.9375l-2.609375 0l0 6.9375l-1.03125 0zm6.509247 0l0 -6.9375l-2.59375 0l0 -0.9375l6.234375 0l0 0.9375l-2.609375 0l0 6.9375l-1.03125 0zm4.4936523 0l0 -7.875l2.96875 0q0.796875 0 1.203125 0.078125q0.578125 0.09375 0.96875 0.375q0.390625 0.265625 0.625 0.75q0.25 0.484375 0.25 1.078125q0 1.0 -0.640625 1.703125q-0.640625 0.6875 -2.3125 0.6875l-2.015625 0l0 3.203125l-1.046875 0zm1.046875 -4.125l2.03125 0q1.015625 0 1.4375 -0.375q0.421875 -0.375 0.421875 -1.0625q0 -0.5 -0.25 -0.84375q-0.25 -0.359375 -0.65625 -0.46875q-0.265625 -0.0625 -0.96875 -0.0625l-2.015625 0l0 2.8125zm5.2170105 4.265625l2.28125 -8.15625l0.78125 0l-2.28125 8.15625l-0.78125 0zm3.7731323 -0.140625l0 -7.875l1.578125 0l1.859375 5.578125q0.25 0.78125 0.375 1.15625q0.140625 -0.421875 0.421875 -1.25l1.875 -5.484375l1.40625 0l0 7.875l-1.0 0l0 -6.59375l-2.296875 6.59375l-0.9375 0l-2.265625 -6.703125l0 6.703125l-1.015625 0zm14.8767395 -0.84375q0.734375 0.5 1.34375 0.734375l-0.3125 0.71875q-0.84375 -0.296875 -1.6875 -0.96875q-0.875 0.5 -1.9375 0.5q-1.0625 0 -1.9375 -0.515625q-0.875 -0.515625 -1.34375 -1.453125q-0.46875 -0.9375 -0.46875 -2.109375q0 -1.171875 0.46875 -2.125q0.484375 -0.953125 1.34375 -1.453125q0.875 -0.5 1.96875 -0.5q1.078125 0 1.953125 0.515625q0.875 0.515625 1.328125 1.453125q0.46875 0.9375 0.46875 2.109375q0 0.96875 -0.296875 1.75q-0.296875 0.765625 -0.890625 1.34375zm-2.296875 -1.328125q0.90625 0.25 1.5 0.75q0.90625 -0.84375 0.90625 -2.515625q0 -0.96875 -0.328125 -1.671875q-0.3125 -0.71875 -0.9375 -1.109375q-0.625 -0.390625 -1.40625 -0.390625q-1.171875 0 -1.9375 0.796875q-0.765625 0.796875 -0.765625 2.375q0 1.53125 0.75 2.359375q0.765625 0.828125 1.953125 0.828125q0.5625 0 1.046875 -0.21875q-0.484375 -0.3125 -1.03125 -0.453125l0.25 -0.75zm6.632538 2.171875l0 -6.9375l-2.59375 0l0 -0.9375l6.234375 0l0 0.9375l-2.609375 0l0 6.9375l-1.03125 0zm6.509247 0l0 -6.9375l-2.59375 0l0 -0.9375l6.234375 0l0 0.9375l-2.609375 0l0 6.9375l-1.03125 0z" fill-rule="nonzero"></path><path fill="#ff9900" d="m10.383771 172.14035l93.448814 0l0 55.37007l-93.448814 0z" fill-rule="evenodd"></path><path stroke="#000000" stroke-width="1.0" stroke-linejoin="round" stroke-linecap="butt" d="m10.383771 172.14035l93.448814 0l0 55.37007l-93.448814 0z" fill-rule="evenodd"></path><path fill="#000000" d="m25.303495 197.50539l0 -5.734375l0.765625 0l0 2.359375l2.96875 0l0 -2.359375l0.765625 0l0 5.734375l-0.765625 0l0 -2.703125l-2.96875 0l0 2.703125l-0.765625 0zm7.214842 0l0 -5.046875l-1.8906231 0l0 -0.6875l4.546873 0l0 0.6875l-1.90625 0l0 5.046875l-0.75 0zm4.8867188 0l0 -5.046875l-1.890625 0l0 -0.6875l4.546875 0l0 0.6875l-1.90625 0l0 5.046875l-0.75 0zm3.4335938 0l0 -5.734375l2.15625 0q0.5625 0 0.875 0.0625q0.421875 0.0625 0.703125 0.265625q0.28125 0.203125 0.453125 0.5625q0.171875 0.34375 0.171875 0.765625q0 0.734375 -0.46875 1.25q-0.453125 0.5 -1.671875 0.5l-1.46875 0l0 2.328125l-0.75 0zm0.75 -3.0l1.484375 0q0.734375 0 1.03125 -0.265625q0.3125 -0.28125 0.3125 -0.78125q0 -0.359375 -0.1875 -0.609375q-0.171875 -0.265625 -0.46875 -0.34375q-0.1875 -0.046875 -0.703125 -0.046875l-1.46875 0l0 2.046875zm3.9609375 3.09375l1.65625 -5.921875l0.5625 0l-1.65625 5.921875l-0.5625 0zm2.8164062 -0.09375l0 -5.734375l1.140625 0l1.359375 4.0625q0.1875 0.5625 0.265625 0.84375q0.109375 -0.3125 0.3125 -0.921875l1.375 -3.984375l1.015625 0l0 5.734375l-0.734375 0l0 -4.796875l-1.65625 4.796875l-0.6875 0l-1.65625 -4.875l0 4.875l-0.734375 0zm11.0234375 -0.609375q0.53125 0.359375 0.984375 0.53125l-0.234375 0.53125q-0.609375 -0.234375 -1.21875 -0.71875q-0.640625 0.359375 -1.40625 0.359375q-0.78125 0 -1.421875 -0.375q-0.625 -0.375 -0.96875 -1.046875q-0.34375 -0.6875 -0.34375 -1.53125q0 -0.859375 0.34375 -1.546875q0.34375 -0.703125 0.96875 -1.0625q0.640625 -0.359375 1.4375 -0.359375q0.78125 0 1.421875 0.375q0.640625 0.375 0.96875 1.0625q0.34375 0.671875 0.34375 1.515625q0 0.71875 -0.21875 1.28125q-0.21875 0.5625 -0.65625 0.984375zm-1.65625 -0.96875q0.65625 0.171875 1.078125 0.546875q0.671875 -0.609375 0.671875 -1.84375q0 -0.6875 -0.25 -1.203125q-0.234375 -0.53125 -0.6875 -0.8125q-0.453125 -0.28125 -1.015625 -0.28125q-0.84375 0 -1.40625 0.578125q-0.5625 0.578125 -0.5625 1.734375q0 1.109375 0.546875 1.71875q0.5625 0.59375 1.421875 0.59375q0.40625 0 0.765625 -0.15625q-0.359375 -0.234375 -0.75 -0.328125l0.1875 -0.546875zm5.0039062 1.578125l0 -5.046875l-1.890625 0l0 -0.6875l4.546879 0l0 0.6875l-1.9062538 0l0 5.046875l-0.75 0zm4.8867226 0l0 -5.046875l-1.890625 0l0 -0.6875l4.546875 0l0 0.6875l-1.90625 0l0 5.046875l-0.75 0zm2.8085938 0.09375l1.65625 -5.921875l0.5625 0l-1.65625 5.921875l-0.5625 0zm2.8164062 -0.09375l0 -5.734375l0.75 0l0 2.84375l2.84375 -2.84375l1.03125 0l-2.40625 2.328125l2.515625 3.40625l-1.0 0l-2.046875 -2.90625l-0.9375 0.921875l0 1.984375l-0.75 0zm7.9921875 0l0 -0.609375q-0.484375 0.703125 -1.3125 0.703125q-0.375 0 -0.703125 -0.140625q-0.3125 -0.140625 -0.46875 -0.34375q-0.140625 -0.21875 -0.203125 -0.53125q-0.046875 -0.203125 -0.046875 -0.65625l0 -2.578125l0.703125 0l0 2.3125q0 0.546875 0.046875 0.734375q0.0625 0.28125 0.265625 0.4375q0.21875 0.15625 0.546875 0.15625q0.3125 0 0.578125 -0.15625q0.28125 -0.171875 0.390625 -0.4375q0.125 -0.28125 0.125 -0.8125l0 -2.234375l0.703125 0l0 4.15625l-0.625 0zm1.7148438 0l0 -4.15625l0.640625 0l0 0.640625q0.234375 -0.453125 0.4375 -0.59375q0.21875 -0.140625 0.453125 -0.140625q0.359375 0 0.734375 0.234375l-0.25 0.65625q-0.25 -0.15625 -0.515625 -0.15625q-0.234375 0 -0.421875 0.140625q-0.171875 0.140625 -0.25 0.375q-0.125 0.375 -0.125 0.828125l0 2.171875l-0.703125 0zm5.3828125 -0.515625q-0.390625 0.328125 -0.75 0.46875q-0.359375 0.140625 -0.78125 0.140625q-0.671875 0 -1.046875 -0.328125q-0.359375 -0.34375 -0.359375 -0.859375q0 -0.3125 0.125 -0.5625q0.140625 -0.25 0.359375 -0.390625q0.234375 -0.15625 0.515625 -0.234375q0.203125 -0.0625 0.625 -0.109375q0.859375 -0.109375 1.25 -0.25q0.015625 -0.140625 0.015625 -0.171875q0 -0.4375 -0.203125 -0.609375q-0.265625 -0.234375 -0.796875 -0.234375q-0.5 0 -0.734375 0.171875q-0.234375 0.171875 -0.359375 0.609375l-0.6875 -0.09375q0.09375 -0.4375 0.3125 -0.703125q0.21875 -0.28125 0.625 -0.421875q0.40625 -0.15625 0.9375 -0.15625q0.53125 0 0.859375 0.125q0.34375 0.125 0.5 0.328125q0.15625 0.1875 0.21875 0.46875q0.03125 0.1875 0.03125 0.65625l0 0.9375q0 0.96875 0.046875 1.234375q0.046875 0.265625 0.171875 0.5l-0.734375 0q-0.109375 -0.21875 -0.140625 -0.515625zm-0.0625 -1.5625q-0.375 0.15625 -1.140625 0.265625q-0.4375 0.0625 -0.625 0.140625q-0.171875 0.078125 -0.265625 0.234375q-0.09375 0.140625 -0.09375 0.328125q0 0.28125 0.203125 0.46875q0.21875 0.1875 0.625 0.1875q0.40625 0 0.71875 -0.171875q0.328125 -0.1875 0.46875 -0.5q0.109375 -0.234375 0.109375 -0.703125l0 -0.25z" fill-rule="nonzero"></path><path fill="#000000" d="m43.08279 207.50539l2.203125 -5.734375l0.8125 0l2.34375 5.734375l-0.859375 0l-0.671875 -1.734375l-2.390625 0l-0.625 1.734375l-0.8125 0zm1.65625 -2.359375l1.9375 0l-0.59375 -1.578125q-0.265625 -0.71875 -0.40625 -1.1875q-0.109375 0.546875 -0.3125 1.09375l-0.625 1.671875zm6.9140625 2.359375l0 -0.53125q-0.390625 0.625 -1.15625 0.625q-0.5 0 -0.921875 -0.265625q-0.40625 -0.28125 -0.640625 -0.765625q-0.21875 -0.5 -0.21875 -1.140625q0 -0.609375 0.203125 -1.109375q0.203125 -0.515625 0.609375 -0.78125q0.421875 -0.28125 0.9375 -0.28125q0.375 0 0.65625 0.171875q0.296875 0.15625 0.484375 0.40625l0 -2.0625l0.703125 0l0 5.734375l-0.65625 0zm-2.21875 -2.078125q0 0.796875 0.328125 1.203125q0.34375 0.390625 0.796875 0.390625q0.46875 0 0.78125 -0.375q0.328125 -0.375 0.328125 -1.15625q0 -0.84375 -0.328125 -1.234375q-0.328125 -0.40625 -0.8125 -0.40625q-0.46875 0 -0.78125 0.390625q-0.3125 0.375 -0.3125 1.1875zm6.6835938 1.5625q-0.390625 0.328125 -0.75 0.46875q-0.359375 0.140625 -0.78125 0.140625q-0.671875 0 -1.046875 -0.328125q-0.359375 -0.34375 -0.359375 -0.859375q0 -0.3125 0.125 -0.5625q0.140625 -0.25 0.359375 -0.390625q0.234375 -0.15625 0.515625 -0.234375q0.203125 -0.0625 0.625 -0.109375q0.859375 -0.109375 1.25 -0.25q0.015625 -0.140625 0.015625 -0.171875q0 -0.4375 -0.203125 -0.609375q-0.265625 -0.234375 -0.796875 -0.234375q-0.5 0 -0.734375 0.171875q-0.234375 0.171875 -0.359375 0.609375l-0.6875 -0.09375q0.09375 -0.4375 0.3125 -0.703125q0.21875 -0.28125 0.625 -0.421875q0.40625 -0.15625 0.9375 -0.15625q0.53125 0 0.859375 0.125q0.34375 0.125 0.5 0.328125q0.15625 0.1875 0.21875 0.46875q0.03125 0.1875 0.03125 0.65625l0 0.9375q0 0.96875 0.046875 1.234375q0.046875 0.265625 0.171875 0.5l-0.734375 0q-0.109375 -0.21875 -0.140625 -0.515625zm-0.0625 -1.5625q-0.375 0.15625 -1.140625 0.265625q-0.4375 0.0625 -0.625 0.140625q-0.171875 0.078125 -0.265625 0.234375q-0.09375 0.140625 -0.09375 0.328125q0 0.28125 0.203125 0.46875q0.21875 0.1875 0.625 0.1875q0.40625 0 0.71875 -0.171875q0.328125 -0.1875 0.46875 -0.5q0.109375 -0.234375 0.109375 -0.703125l0 -0.25zm1.8085938 3.671875l0 -5.75l0.640625 0l0 0.546875q0.21875 -0.3125 0.5 -0.46875q0.296875 -0.171875 0.703125 -0.171875q0.53125 0 0.9375 0.28125q0.40625 0.265625 0.609375 0.765625q0.203125 0.5 0.203125 1.09375q0 0.640625 -0.234375 1.15625q-0.21875 0.5 -0.65625 0.78125q-0.4375 0.265625 -0.90625 0.265625q-0.359375 0 -0.640625 -0.140625q-0.28125 -0.15625 -0.453125 -0.390625l0 2.03125l-0.703125 0zm0.640625 -3.640625q0 0.796875 0.3125 1.1875q0.328125 0.375 0.796875 0.375q0.46875 0 0.796875 -0.390625q0.328125 -0.40625 0.328125 -1.234375q0 -0.796875 -0.328125 -1.1875q-0.3125 -0.390625 -0.765625 -0.390625q-0.453125 0 -0.796875 0.421875q-0.34375 0.40625 -0.34375 1.21875zm5.3398438 1.421875l0.109375 0.609375q-0.296875 0.078125 -0.53125 0.078125q-0.390625 0 -0.609375 -0.125q-0.203125 -0.125 -0.296875 -0.3125q-0.078125 -0.203125 -0.078125 -0.84375l0 -2.390625l-0.515625 0l0 -0.546875l0.515625 0l0 -1.015625l0.703125 -0.421875l0 1.4375l0.703125 0l0 0.546875l-0.703125 0l0 2.4375q0 0.296875 0.03125 0.390625q0.046875 0.078125 0.125 0.125q0.078125 0.046875 0.234375 0.046875q0.125 0 0.3125 -0.015625zm3.53516 -0.71875l0.71875 0.09375q-0.171875 0.640625 -0.640625 1.0q-0.453125 0.34375 -1.1875 0.34375q-0.90625 0 -1.4375 -0.5625q-0.53125 -0.5625 -0.53125 -1.578125q0 -1.046875 0.53125 -1.625q0.546875 -0.578125 1.40625 -0.578125q0.828125 0 1.359375 0.578125q0.53125 0.5625 0.53125 1.59375q0 0.0625 -0.015625 0.1875l-3.09375 0q0.046875 0.671875 0.390625 1.046875q0.34375 0.359375 0.875 0.359375q0.375 0 0.640625 -0.203125q0.28125 -0.203125 0.453125 -0.65625zm-2.3125 -1.125l2.3125 0q-0.046875 -0.53125 -0.265625 -0.796875q-0.328125 -0.40625 -0.875 -0.40625q-0.484375 0 -0.8125 0.328125q-0.328125 0.328125 -0.359375 0.875zm3.9023438 2.46875l0 -4.15625l0.640625 0l0 0.640625q0.234375 -0.453125 0.4375 -0.59375q0.21875 -0.140625 0.453125 -0.140625q0.359375 0 0.734375 0.234375l-0.25 0.65625q-0.25 -0.15625 -0.515625 -0.15625q-0.234375 0 -0.421875 0.140625q-0.171875 0.140625 -0.25 0.375q-0.125 0.375 -0.125 0.828125l0 2.171875l-0.703125 0z" fill-rule="nonzero"></path><path fill="#000000" fill-opacity="0.0" d="m103.83259 199.8254l35.02363 -0.09449768" fill-rule="evenodd"></path><path stroke="#ff9900" stroke-width="1.0" stroke-linejoin="round" stroke-linecap="butt" d="m103.832596 199.8254l29.023636 -0.078308105" fill-rule="evenodd"></path><path fill="#ff9900" stroke="#ff9900" stroke-width="1.0" stroke-linecap="butt" d="m132.8607 201.39882l4.533615 -1.663971l-4.5425415 -1.6394806z" fill-rule="evenodd"></path></g></svg>

