<?xml version="1.0" standalone="no"?>
<!DOCTYPE svg PUBLIC "-//W3C//DTD SVG 20010904//EN"
 "http://www.w3.org/TR/2001/REC-SVG-20010904/DTD/svg10.dtd">
<svg version="1.0" xmlns="http://www.w3.org/2000/svg"
 width="540.000000pt" height="540.000000pt" viewBox="0 0 540.000000 540.000000"
 preserveAspectRatio="xMidYMid meet">
<metadata>
Created by potrace 1.11, written by Peter Selinger 2001-2013
</metadata>
<g transform="translate(0.000000,540.000000) scale(0.100000,-0.100000)"
fill="#000000" stroke="none">
<path d="M2660 5090 c-84 -17 -206 -80 -279 -145 -96 -85 -235 -249 -263 -311
-6 -13 -14 -24 -18 -24 -4 0 -10 -8 -14 -17 -3 -10 -17 -36 -31 -58 -28 -45
-175 -337 -179 -357 -2 -7 -8 -24 -13 -38 -98 -232 -187 -534 -209 -710 -9
-81 -12 -286 -4 -331 5 -24 11 -61 14 -82 3 -21 13 -53 20 -72 8 -19 13 -35
10 -35 -7 0 58 -122 73 -138 7 -7 16 -18 20 -25 10 -16 95 -85 153 -124 60
-42 100 -79 138 -132 34 -48 40 -67 20 -69 -7 0 -24 -3 -38 -7 -25 -6 -177 -7
-215 -1 -11 1 -33 6 -50 9 -16 4 -43 9 -60 12 -16 3 -55 12 -85 20 -30 9 -64
18 -75 20 -11 3 -51 12 -90 20 -38 9 -86 20 -105 24 -42 9 -159 7 -210 -3 -48
-10 -131 -41 -188 -70 -209 -106 -464 -400 -617 -711 -16 -33 -33 -61 -37 -63
-4 -2 -8 -10 -8 -17 0 -7 -15 -46 -33 -87 -73 -160 -126 -307 -163 -455 -37
-147 -36 -305 1 -433 50 -170 211 -318 388 -354 7 -2 23 -6 37 -9 91 -23 344
-24 457 -3 11 3 38 7 59 10 21 4 68 14 104 22 36 9 72 17 81 19 22 5 155 44
204 60 22 7 94 34 160 60 574 225 907 485 1004 785 14 46 17 125 7 225 -13
119 -13 129 -8 142 5 15 9 11 74 -73 80 -104 106 -160 183 -391 42 -125 89
-254 105 -287 55 -116 166 -219 310 -287 53 -25 197 -73 253 -84 164 -32 240
-39 447 -39 225 -1 367 9 510 35 30 6 66 12 80 14 95 13 297 79 360 116 8 5
25 14 38 19 89 38 230 174 281 270 19 36 34 66 33 68 -1 1 -2 3 -1 5 28 93 13
281 -30 382 -47 109 -150 289 -180 315 -3 3 -19 23 -36 45 -55 75 -281 294
-386 375 -18 14 -37 30 -43 35 -6 6 -36 28 -66 50 -30 22 -57 42 -60 46 -7 9
-258 172 -310 202 -132 76 -330 161 -400 172 -8 1 -26 5 -40 8 -58 15 -92 19
-213 22 -71 2 -143 -1 -160 -7 -35 -11 -79 -30 -87 -38 -30 -30 -143 -88 -187
-96 -32 -6 -31 23 5 68 35 47 69 74 167 132 352 210 479 414 476 761 -1 44 -3
89 -5 100 -2 11 -7 47 -10 80 -4 33 -11 76 -16 95 -5 19 -11 46 -14 60 -27
156 -149 497 -247 692 -47 93 -151 265 -168 278 -4 3 -15 16 -24 29 -19 28
-136 151 -143 151 -5 0 -19 11 -48 36 -25 23 -133 73 -187 87 -59 15 -161 18
-219 7z"/>
</g>
</svg>
