<?xml version="1.0" encoding="UTF-8" standalone="no"?>
<!-- Created with Inkscape (http://www.inkscape.org/) -->

<svg
   xmlns:dc="http://purl.org/dc/elements/1.1/"
   xmlns:cc="http://creativecommons.org/ns#"
   xmlns:rdf="http://www.w3.org/1999/02/22-rdf-syntax-ns#"
   xmlns:svg="http://www.w3.org/2000/svg"
   xmlns="http://www.w3.org/2000/svg"
   xmlns:sodipodi="http://sodipodi.sourceforge.net/DTD/sodipodi-0.dtd"
   xmlns:inkscape="http://www.inkscape.org/namespaces/inkscape"
   width="79.189056mm"
   height="28.501535mm"
   viewBox="0 0 79.189057 28.501536"
   version="1.1"
   id="svg4086"
   inkscape:version="0.92.4 (33fec40, 2019-01-16)"
   sodipodi:docname="companyx.svg">
  <defs
     id="defs4080" />
  <sodipodi:namedview
     id="base"
     pagecolor="#ffffff"
     bordercolor="#666666"
     borderopacity="1.0"
     inkscape:pageopacity="0.0"
     inkscape:pageshadow="2"
     inkscape:zoom="1.979899"
     inkscape:cx="263.02328"
     inkscape:cy="-46.280447"
     inkscape:document-units="mm"
     inkscape:current-layer="layer1"
     showgrid="false"
     inkscape:window-width="1853"
     inkscape:window-height="1145"
     inkscape:window-x="67"
     inkscape:window-y="27"
     inkscape:window-maximized="1" />
  <metadata
     id="metadata4083">
    <rdf:RDF>
      <cc:Work
         rdf:about="">
        <dc:format>image/svg+xml</dc:format>
        <dc:type
           rdf:resource="http://purl.org/dc/dcmitype/StillImage" />
        <dc:title></dc:title>
      </cc:Work>
    </rdf:RDF>
  </metadata>
  <g
     inkscape:label="Ebene 1"
     inkscape:groupmode="layer"
     id="layer1"
     transform="translate(-38.900394,-95.829186)">
    <text
       xml:space="preserve"
       style="font-style:normal;font-variant:normal;font-weight:normal;font-stretch:normal;font-size:10.58333302px;line-height:1.25;font-family:Uroob;-inkscape-font-specification:Uroob;letter-spacing:0px;word-spacing:0px;fill:#000000;fill-opacity:1;stroke:none;stroke-width:0.26458332"
       x="37.797619"
       y="119.35118"
       id="text4090"><tspan
         sodipodi:role="line"
         id="tspan4088"
         x="37.797619"
         y="119.35118"
         style="font-size:23.28333282px;stroke-width:0.26458332">Company<tspan
   style="font-size:64.99999762%;baseline-shift:super"
   id="tspan4094" /></tspan></text>
    <path
       style="fill:#ffffff;stroke-width:0.50507629"
       d="m 303.35314,443.58465 c -1.21207,-1.21207 -1.27967,-1.54473 -1.11346,-5.47871 0.24484,-5.79479 0.32058,-5.85778 7.04436,-5.85778 h 5.48103 l 0.82203,1.58964 c 0.60846,1.17662 0.77259,2.56873 0.63173,5.35811 -0.2599,5.14689 -0.92183,5.67916 -7.06257,5.67916 -4.16597,0 -4.61184,-0.0992 -5.80312,-1.29042 z"
       id="path4098"
       inkscape:connector-curvature="0"
       transform="scale(0.26458333)" />
    <path
       style="fill:#ffffff;stroke-width:0.50507629"
       d="m 303.35314,443.58465 c -1.21207,-1.21207 -1.27967,-1.54473 -1.11346,-5.47871 0.24797,-5.86909 0.3139,-5.92202 7.15675,-5.74735 l 5.56712,0.14211 0.88697,1.51523 c 1.76711,3.01881 0.8513,9.06112 -1.56976,10.35683 -0.51621,0.27627 -2.89576,0.50231 -5.28788,0.50231 -3.99076,0 -4.4557,-0.10638 -5.63974,-1.29042 z"
       id="path4100"
       inkscape:connector-curvature="0"
       transform="scale(0.26458333)" />
    <path
       style="fill:#ffffff;stroke-width:0.50507629"
       d="m 271.55648,442.65273 -1.71726,-1.71726 v -11.18514 -11.18514 l 1.23973,-1.23974 c 1.09908,-1.09908 1.67587,-1.23973 5.08397,-1.23973 2.11433,0 4.27392,0.22996 4.79908,0.51102 1.5562,0.83285 2.0041,3.78079 1.99434,13.12604 -0.014,13.41102 -0.55458,14.64721 -6.40505,14.64721 -3.05398,0 -3.39469,-0.11714 -4.99481,-1.71726 z"
       id="path4102"
       inkscape:connector-curvature="0"
       transform="scale(0.26458333)" />
    <path
       style="fill:#ffffff;stroke-width:0.50507629"
       d="m 189.54389,443.00759 c -1.03428,-1.31489 -1.06639,-1.77993 -0.92054,-13.33255 0.1807,-14.3125 0.099,-14.0944 5.28017,-14.0944 5.34159,0 5.22502,-0.32114 5.22502,14.39468 0,14.73147 0.12323,14.39467 -5.26664,14.39467 -2.92454,0 -3.35257,-0.13505 -4.31801,-1.3624 z"
       id="path4104"
       inkscape:connector-curvature="0"
       transform="scale(0.26458333)" />
    <text
       xml:space="preserve"
       style="font-style:normal;font-variant:normal;font-weight:normal;font-stretch:normal;font-size:10.58333302px;line-height:1.25;font-family:Uroob;-inkscape-font-specification:Uroob;letter-spacing:0px;word-spacing:0px;fill:#000000;fill-opacity:1;stroke:none;stroke-width:0.26458332"
       x="107.05412"
       y="110.0318"
       id="text4127"><tspan
         sodipodi:role="line"
         id="tspan4125"
         x="107.05412"
         y="110.0318"
         style="font-size:22.57777786px;stroke-width:0.26458332">X</tspan></text>
  </g>
</svg>
