<?xml version="1.0" encoding="UTF-8" standalone="no"?>
<svg xmlns="http://www.w3.org/2000/svg" xmlns:xlink="http://www.w3.org/1999/xlink" contentScriptType="application/ecmascript" contentStyleType="text/css" height="74px" preserveAspectRatio="none" style="width:392px;height:74px;" version="1.1" viewBox="0 0 392 74" width="392px" zoomAndPan="magnify"><defs><filter height="300%" id="fdq52fhvxsihs" width="300%" x="-1" y="-1"><feGaussianBlur result="blurOut" stdDeviation="2.0"/><feColorMatrix in="blurOut" result="blurOut2" type="matrix" values="0 0 0 0 0 0 0 0 0 0 0 0 0 0 0 0 0 0 .4 0"/><feOffset dx="4.0" dy="4.0" in="blurOut2" result="blurOut3"/><feBlend in="SourceGraphic" in2="blurOut3" mode="normal"/></filter></defs><g><!--MD5=[a8904d412b6bac905c960d0a15a57f60]
class Tenant--><rect fill="#FEFECE" filter="url(#fdq52fhvxsihs)" height="48" id="Tenant" style="stroke: #A80036; stroke-width: 1.5;" width="72" x="7" y="7"/><ellipse cx="22" cy="23" fill="#ADD1B2" rx="11" ry="11" style="stroke: #A80036; stroke-width: 1.0;"/><path d="M24.3438,18.6719 C23.4063,18.2344 22.8125,18.0938 21.9375,18.0938 C19.3125,18.0938 17.3125,20.1719 17.3125,22.8906 L17.3125,24.0156 C17.3125,26.5938 19.4219,28.4844 22.3125,28.4844 C23.5313,28.4844 24.6875,28.1875 25.4375,27.6406 C26.0156,27.2344 26.3438,26.7813 26.3438,26.3906 C26.3438,25.9375 25.9531,25.5469 25.4844,25.5469 C25.2656,25.5469 25.0625,25.625 24.875,25.8125 C24.4219,26.2969 24.4219,26.2969 24.2344,26.3906 C23.8125,26.6563 23.125,26.7813 22.3594,26.7813 C20.3125,26.7813 19.0156,25.6875 19.0156,23.9844 L19.0156,22.8906 C19.0156,21.1094 20.2656,19.7969 22,19.7969 C22.5781,19.7969 23.1875,19.9531 23.6563,20.2031 C24.1406,20.4844 24.3125,20.7031 24.4063,21.1094 C24.4688,21.5156 24.5,21.6406 24.6406,21.7656 C24.7813,21.9063 25.0156,22.0156 25.2344,22.0156 C25.5,22.0156 25.7656,21.875 25.9375,21.6563 C26.0469,21.5 26.0781,21.3125 26.0781,20.8906 L26.0781,19.4688 C26.0781,19.0313 26.0625,18.9063 25.9688,18.75 C25.8125,18.4844 25.5313,18.3438 25.2344,18.3438 C24.9375,18.3438 24.7344,18.4375 24.5156,18.75 L24.3438,18.6719 Z "/><text fill="#000000" font-family="sans-serif" font-size="12" lengthAdjust="spacingAndGlyphs" textLength="40" x="36" y="27.1543">Tenant</text><line style="stroke: #A80036; stroke-width: 1.5;" x1="8" x2="78" y1="39" y2="39"/><line style="stroke: #A80036; stroke-width: 1.5;" x1="8" x2="78" y1="47" y2="47"/><!--MD5=[fc539fa3f3b7db9b31467e896d367b3b]
class Device--><rect fill="#FEFECE" filter="url(#fdq52fhvxsihs)" height="48" id="Device" style="stroke: #A80036; stroke-width: 1.5;" width="74" x="139" y="7"/><ellipse cx="154" cy="23" fill="#ADD1B2" rx="11" ry="11" style="stroke: #A80036; stroke-width: 1.0;"/><path d="M156.3438,18.6719 C155.4063,18.2344 154.8125,18.0938 153.9375,18.0938 C151.3125,18.0938 149.3125,20.1719 149.3125,22.8906 L149.3125,24.0156 C149.3125,26.5938 151.4219,28.4844 154.3125,28.4844 C155.5313,28.4844 156.6875,28.1875 157.4375,27.6406 C158.0156,27.2344 158.3438,26.7813 158.3438,26.3906 C158.3438,25.9375 157.9531,25.5469 157.4844,25.5469 C157.2656,25.5469 157.0625,25.625 156.875,25.8125 C156.4219,26.2969 156.4219,26.2969 156.2344,26.3906 C155.8125,26.6563 155.125,26.7813 154.3594,26.7813 C152.3125,26.7813 151.0156,25.6875 151.0156,23.9844 L151.0156,22.8906 C151.0156,21.1094 152.2656,19.7969 154,19.7969 C154.5781,19.7969 155.1875,19.9531 155.6563,20.2031 C156.1406,20.4844 156.3125,20.7031 156.4063,21.1094 C156.4688,21.5156 156.5,21.6406 156.6406,21.7656 C156.7813,21.9063 157.0156,22.0156 157.2344,22.0156 C157.5,22.0156 157.7656,21.875 157.9375,21.6563 C158.0469,21.5 158.0781,21.3125 158.0781,20.8906 L158.0781,19.4688 C158.0781,19.0313 158.0625,18.9063 157.9688,18.75 C157.8125,18.4844 157.5313,18.3438 157.2344,18.3438 C156.9375,18.3438 156.7344,18.4375 156.5156,18.75 L156.3438,18.6719 Z "/><text fill="#000000" font-family="sans-serif" font-size="12" lengthAdjust="spacingAndGlyphs" textLength="42" x="168" y="27.1543">Device</text><line style="stroke: #A80036; stroke-width: 1.5;" x1="140" x2="212" y1="39" y2="39"/><line style="stroke: #A80036; stroke-width: 1.5;" x1="140" x2="212" y1="47" y2="47"/><!--MD5=[63e7a34560323ddebc94de26bb3dfe24]
class Credentials--><rect fill="#FEFECE" filter="url(#fdq52fhvxsihs)" height="48" id="Credentials" style="stroke: #A80036; stroke-width: 1.5;" width="100" x="273" y="7"/><ellipse cx="288" cy="23" fill="#ADD1B2" rx="11" ry="11" style="stroke: #A80036; stroke-width: 1.0;"/><path d="M290.3438,18.6719 C289.4063,18.2344 288.8125,18.0938 287.9375,18.0938 C285.3125,18.0938 283.3125,20.1719 283.3125,22.8906 L283.3125,24.0156 C283.3125,26.5938 285.4219,28.4844 288.3125,28.4844 C289.5313,28.4844 290.6875,28.1875 291.4375,27.6406 C292.0156,27.2344 292.3438,26.7813 292.3438,26.3906 C292.3438,25.9375 291.9531,25.5469 291.4844,25.5469 C291.2656,25.5469 291.0625,25.625 290.875,25.8125 C290.4219,26.2969 290.4219,26.2969 290.2344,26.3906 C289.8125,26.6563 289.125,26.7813 288.3594,26.7813 C286.3125,26.7813 285.0156,25.6875 285.0156,23.9844 L285.0156,22.8906 C285.0156,21.1094 286.2656,19.7969 288,19.7969 C288.5781,19.7969 289.1875,19.9531 289.6563,20.2031 C290.1406,20.4844 290.3125,20.7031 290.4063,21.1094 C290.4688,21.5156 290.5,21.6406 290.6406,21.7656 C290.7813,21.9063 291.0156,22.0156 291.2344,22.0156 C291.5,22.0156 291.7656,21.875 291.9375,21.6563 C292.0469,21.5 292.0781,21.3125 292.0781,20.8906 L292.0781,19.4688 C292.0781,19.0313 292.0625,18.9063 291.9688,18.75 C291.8125,18.4844 291.5313,18.3438 291.2344,18.3438 C290.9375,18.3438 290.7344,18.4375 290.5156,18.75 L290.3438,18.6719 Z "/><text fill="#000000" font-family="sans-serif" font-size="12" lengthAdjust="spacingAndGlyphs" textLength="68" x="302" y="27.1543">Credentials</text><line style="stroke: #A80036; stroke-width: 1.5;" x1="274" x2="372" y1="39" y2="39"/><line style="stroke: #A80036; stroke-width: 1.5;" x1="274" x2="372" y1="47" y2="47"/><!--MD5=[59c30b2954e63bfb1dc3a20de84d1fda]
reverse link Tenant to Device--><path d="M92.2193,31 C107.654,31 124.467,31 138.884,31 " fill="none" id="Tenant&lt;-Device" style="stroke: #A80036; stroke-width: 1.0;"/><polygon fill="#A80036" points="79.1056,31,85.1056,35,91.1056,31,85.1056,27,79.1056,31" style="stroke: #A80036; stroke-width: 1.0;"/><text fill="#000000" font-family="sans-serif" font-size="13" lengthAdjust="spacingAndGlyphs" textLength="7" x="123.8877" y="44.5565">*</text><!--MD5=[af21fca250bb13019d9af04be242f9c9]
reverse link Device to Credentials--><path d="M226.477,31 C241.457,31 257.9,31 272.858,31 " fill="none" id="Device&lt;-Credentials" style="stroke: #A80036; stroke-width: 1.0;"/><polygon fill="#A80036" points="213.216,31,219.216,35,225.216,31,219.216,27,213.216,31" style="stroke: #A80036; stroke-width: 1.0;"/><text fill="#000000" font-family="sans-serif" font-size="13" lengthAdjust="spacingAndGlyphs" textLength="7" x="257.9793" y="44.1782">*</text><!--MD5=[98f50ff5198503f23c02de9c414a9e7d]
@startuml
left to right direction
Tenant *- - "*" Device
Device *- - "*" Credentials
@enduml

PlantUML version 1.2020.13(Sat Jun 13 12:26:38 UTC 2020)
(GPL source distribution)
Java Runtime: Java(TM) SE Runtime Environment
JVM: Java HotSpot(TM) 64-Bit Server VM
Default Encoding: UTF-8
Language: en
Country: US
--></g></svg>