<svg xmlns="http://www.w3.org/2000/svg" viewBox="0 0 373.33 195"><defs><style>.cls-1{fill:#f79422;}.cls-2{fill:#fff;}</style></defs><title>EF_WHT_OR_svg</title><g id="Layer_1" data-name="Layer 1"><path class="cls-1" d="M316.46,131.6l-8.68-11h-2.71v17.73h3.34v-12l9.31,12h2.07V120.6h-3.33ZM284,123.31c4.17,0,5.84,3.34,5.79,6.32s-1.62,6.05-5.79,6.05-5.74-3.11-5.81-6S279.87,123.31,284,123.31Zm0-3c-6.12,0-9.1,4.68-9.1,9.34s2.88,9.13,9.1,9.13,9-4.58,9.08-9.16S290.14,120.27,284,120.27Zm-21.23,18.06V120.6H259.5v17.73Zm-23.56,0h3.34V123.64h5.61v-3H233.63v3h5.62Zm-18.91-6.45h-6.58l3.29-7.55Zm2.83,6.45h3.64l-7.94-17.73h-3.64l-7.94,17.73h3.62l1.51-3.34h9.26Zm-38-14.57h3.64c3.85,0,5.46,2.77,5.54,5.53s-1.52,5.83-5.54,5.83h-3.64Zm3.64-3.16h-6.95v17.73h6.95c6.2,0,8.93-4.53,8.85-9S194.88,120.6,188.81,120.6Zm-22.37,11-8.67-11h-2.71v17.73h3.34v-12l9.3,12h2.08V120.6h-3.34ZM139,120.65v10.14c0,3-1.56,4.89-4.32,4.89s-4.58-1.7-4.58-4.89V120.65h-3.31v10.14c0,5.34,3.62,7.92,7.86,7.92,4.46,0,7.67-2.68,7.67-7.92V120.65Zm-33,2.66c4.17,0,5.84,3.34,5.79,6.32s-1.62,6.05-5.79,6.05-5.74-3.11-5.82-6S101.82,123.31,106,123.31Zm0-3c-6.12,0-9.1,4.68-9.1,9.34s2.88,9.13,9.1,9.13,9-4.58,9.08-9.16S112.09,120.27,106,120.27ZM76.21,138.33v-6.55h8.88V128.7H76.21v-4.83h9.38v-3.22H72.87v17.68Z"/><path class="cls-2" d="M320.12,102.05H298V93.13h21.38V86.2H298V77.06h22.17V69.84H290.56v39.54h29.56Zm-40-25.67c-3-6.09-9.36-7.84-15.51-7.84-7.28.06-15.29,3.39-15.29,11.51,0,8.85,7.45,11,15.51,12,5.25.56,9.14,2.08,9.14,5.81,0,4.28-4.4,5.92-9.08,5.92s-9.36-1.92-11.11-6.26l-6.21,3.21c2.94,7.22,9.14,9.7,17.21,9.7,8.8,0,16.58-3.77,16.58-12.57,0-9.42-7.67-11.57-15.91-12.58-4.73-.57-8.79-1.53-8.79-5,0-2.93,2.65-5.24,8.17-5.24,4.29,0,8,2.14,9.37,4.4ZM226.8,69.84c-6.21-.06-12.41,0-18.62,0v39.54h7.45V97.76H226.8C246.14,97.76,246.09,69.84,226.8,69.84ZM215.63,77H226.8c9.47,0,9.53,14,0,14H215.63Zm-18,32.43V69.84h-7.39v39.54Zm-44-39.54v39.54h27.75V102.5H161.11V69.84ZM141.44,99.28a14.49,14.49,0,0,1-9.92,4c-9.76,0-13.54-6.83-13.6-13.37s4.06-13.71,13.6-13.71a13.57,13.57,0,0,1,9.53,3.73l5-4.8a20.37,20.37,0,0,0-14.49-6c-14.27,0-21,10.49-20.93,20.81s6.26,20.36,20.93,20.36a20.79,20.79,0,0,0,15-5.87Zm-39,2.77H80.26V93.13h21.38V86.2H80.26V77.06h22.17V69.84H72.87v39.54h29.56Z"/><path class="cls-1" d="M60.55,65.82c9-14.1,27.15-19,42.25-12.25-.33-.23-.66-.47-1-.69A33.16,33.16,0,1,0,66,108.7l1.05.64C54.58,98.44,51.5,79.93,60.55,65.82Z"/><path class="cls-2" d="M326.71,70.54h-1.59v4.6h-1v-4.6h-1.59v-1h4.2Z"/><path class="cls-2" d="M332.91,75.14h-1l-.49-3.85-1.47,2.65-1.39-2.54-.49,3.74H327l.75-5.6h.85L330,72.09l1.37-2.55h.84Z"/></g></svg>